<?xml version="1.0" standalone="no"?>
<!DOCTYPE svg PUBLIC "-//W3C//DTD SVG 20010904//EN"
 "http://www.w3.org/TR/2001/REC-SVG-20010904/DTD/svg10.dtd">
<svg version="1.0" xmlns="http://www.w3.org/2000/svg"
 width="623.000000pt" height="623.000000pt" viewBox="0 0 623.000000 623.000000"
 preserveAspectRatio="xMidYMid meet">
<metadata>
Created by potrace 1.14, written by Peter Selinger 2001-2017
</metadata>
<g transform="translate(0.000000,623.000000) scale(0.100000,-0.100000)"
fill="#000000" stroke="none">
<path d="M2941 4801 c-29 -41 -26 -46 12 -22 32 20 41 41 21 48 -7 2 -21 -9
-33 -26z"/>
<path d="M2890 4718 c0 -10 -7 -18 -15 -18 -8 0 -15 -8 -15 -17 0 -14 2 -15 9
-5 4 8 10 13 12 11 9 -5 49 13 49 22 0 17 -5 23 -22 24 -11 1 -18 -5 -18 -17z"/>
<path d="M2960 4682 c0 -7 -5 -12 -11 -12 -6 0 -25 -6 -42 -14 -18 -7 -47 -19
-65 -26 -35 -14 -71 -65 -50 -72 6 -2 -2 -14 -19 -26 -33 -23 -109 -122 -94
-122 4 0 35 13 67 30 32 16 65 30 72 30 6 0 12 4 12 8 0 5 20 17 45 28 25 10
45 24 45 31 0 12 13 17 33 14 4 0 7 4 7 10 0 5 4 8 9 5 5 -3 11 3 14 14 5 19
-4 25 -28 20 -26 -5 -43 -10 -74 -19 -27 -8 -32 -8 -23 1 7 7 17 13 24 14 39
6 106 44 104 58 -3 21 -26 45 -26 28z m-130 -117 c-7 -9 -15 -13 -19 -10 -3 3
1 10 9 15 21 14 24 12 10 -5z"/>
<path d="M2935 4469 c-27 -11 -59 -24 -70 -29 -11 -5 -54 -21 -95 -36 -82 -29
-146 -59 -154 -72 -8 -13 25 -9 52 6 12 7 22 10 22 7 0 -3 10 1 22 9 12 9 28
16 35 16 31 0 224 83 233 101 6 10 9 19 8 18 -2 0 -25 -9 -53 -20z"/>
<path d="M1858 4438 c-35 -46 -43 -74 -23 -82 9 -3 41 -22 70 -42 30 -19 59
-33 65 -29 15 9 62 86 57 92 -3 2 -15 -10 -27 -26 -25 -36 -30 -37 -60 -13
-22 18 -22 19 -5 46 24 36 13 44 -14 10 -20 -25 -24 -26 -46 -14 l-25 13 21
34 c28 45 19 52 -13 11z"/>
<path d="M2944 4414 c-10 -8 -13 -12 -5 -8 9 4 12 3 8 -4 -4 -5 -16 -8 -27 -5
-15 4 -20 0 -21 -13 0 -11 -3 -14 -6 -6 -4 9 -12 8 -36 -5 -18 -10 -33 -21
-35 -25 -2 -5 -10 -8 -18 -8 -8 0 -14 -4 -14 -10 0 -5 -7 -7 -15 -3 -9 3 -24
-2 -34 -11 -10 -9 -21 -13 -26 -9 -4 5 -5 0 -2 -9 4 -13 2 -15 -10 -11 -10 4
-14 2 -10 -4 4 -6 -24 -26 -63 -47 -77 -40 -80 -41 -80 -24 0 6 3 8 6 5 7 -7
64 23 64 34 0 4 -18 -2 -40 -13 -22 -11 -40 -25 -40 -30 0 -6 -8 -18 -18 -27
-28 -26 -143 -202 -137 -211 3 -4 -5 -10 -17 -13 -12 -4 -19 -9 -16 -12 3 -4
-5 -18 -19 -33 -20 -21 -22 -28 -10 -30 9 -2 29 4 46 13 17 8 31 12 31 8 0 -5
6 -1 13 7 7 8 21 17 32 18 11 2 32 10 47 18 15 8 34 14 42 14 8 0 16 4 18 10
2 5 12 11 23 13 19 4 47 14 70 25 6 3 -17 -20 -50 -51 -59 -56 -133 -98 -230
-133 -27 -10 -52 -19 -55 -19 -29 -6 -79 -38 -85 -54 -3 -12 -11 -21 -16 -21
-6 0 -7 -5 -4 -10 5 -8 11 -7 21 1 8 6 14 9 14 6 0 -3 16 1 35 9 19 7 38 14
42 14 14 -1 -68 -39 -90 -42 -30 -4 -54 -26 -79 -70 -12 -21 -25 -38 -29 -38
-4 0 -6 42 -4 94 l3 94 -27 -8 c-14 -5 -87 -29 -161 -54 -74 -25 -139 -46
-144 -46 -9 0 53 42 266 179 l67 43 1 52 c0 28 1 72 3 98 2 39 -1 47 -13 44
-53 -15 -61 -14 -25 4 38 18 40 21 41 67 1 26 3 90 4 141 1 51 0 95 -2 98 -3
2 -52 -64 -108 -148 -57 -84 -107 -154 -112 -156 -4 -2 -8 -7 -8 -12 0 -4 -29
-50 -65 -102 -35 -51 -124 -181 -197 -288 -72 -107 -153 -224 -178 -260 -25
-36 -49 -71 -53 -77 -5 -7 31 15 79 49 47 34 89 69 92 77 9 25 60 55 192 115
66 29 300 113 295 106 -6 -9 -286 -175 -365 -216 -30 -16 -57 -31 -60 -34 -3
-3 -21 -13 -40 -23 -131 -70 -207 -111 -219 -121 -16 -13 -82 -109 -77 -113 6
-6 120 38 189 73 74 37 117 56 117 50 0 -2 -36 -27 -79 -55 -67 -43 -128 -73
-176 -85 -5 -2 -23 -8 -38 -14 -16 -7 -32 -12 -36 -12 -11 0 -91 -106 -91
-119 0 -5 -3 -11 -7 -13 -12 -5 -103 -143 -103 -155 0 -6 -7 -16 -15 -23 -16
-13 -105 -137 -105 -146 0 -2 13 5 28 16 29 22 159 60 202 59 24 0 0 -13 -188
-100 -34 -16 -66 -29 -71 -29 -8 0 -46 -46 -65 -77 -4 -7 21 -1 56 13 35 15
80 34 101 43 22 9 100 46 175 84 76 37 126 58 112 47 -14 -10 -36 -25 -50 -32
-14 -7 -72 -39 -130 -70 -58 -31 -132 -66 -165 -78 -116 -41 -128 -49 -170
-113 -86 -130 -79 -116 -53 -110 13 3 28 9 33 14 6 4 22 10 35 13 14 3 50 14
80 25 30 11 102 36 159 56 57 20 112 40 123 46 10 5 18 7 18 4 0 -3 -21 -15
-47 -26 -64 -28 -97 -43 -313 -147 -150 -72 -188 -95 -203 -120 l-17 -31 145
59 c80 32 145 57 145 55 0 -2 -32 -23 -70 -46 -39 -23 -72 -45 -75 -49 -3 -4
-41 -20 -85 -36 -46 -16 -94 -40 -111 -56 -35 -34 -36 -37 -4 -30 14 2 25 8
25 13 0 4 16 11 35 15 19 3 38 10 41 15 8 14 21 11 21 -5 0 -8 -38 -30 -91
-53 -62 -26 -92 -44 -94 -56 -5 -24 10 -20 168 43 64 26 82 32 104 37 11 2 26
8 33 15 7 6 16 8 19 6 3 -3 -40 -29 -96 -57 -55 -29 -100 -53 -100 -54 0 -2
53 -2 117 -1 128 1 102 -6 406 114 26 10 47 16 47 12 -1 -10 -107 -85 -142
-99 -16 -7 -27 -16 -24 -21 5 -8 191 -9 216 0 8 3 40 13 70 21 46 14 52 14 36
2 -11 -8 -26 -15 -34 -15 -7 0 -11 -4 -8 -8 2 -4 67 -7 143 -7 118 1 145 4
184 23 25 11 70 30 100 42 l54 21 -40 -35 c-22 -20 -43 -35 -47 -36 -5 0 -8
-4 -8 -9 0 -5 12 -9 28 -8 17 0 61 26 122 71 52 39 97 71 100 72 5 1 19 6 90
33 43 17 45 19 46 59 1 28 -2 42 -11 42 -7 0 -55 -13 -106 -30 -118 -37 -125
-37 -64 1 41 26 154 81 163 80 15 -4 21 5 24 36 l3 37 93 1 c85 0 92 -1 93
-20 0 -11 1 -101 2 -200 l2 -180 115 0 c63 -1 122 1 130 3 13 3 15 33 15 200
l-1 197 132 0 132 0 36 -70 c137 -266 174 -329 195 -330 12 -1 25 3 30 9 5 6
45 81 89 166 43 85 120 235 170 332 51 97 119 230 152 297 33 66 63 122 67
124 5 3 8 -200 7 -451 0 -252 1 -462 3 -467 2 -6 93 -10 248 -10 239 0 245 0
246 20 4 93 3 1415 -1 1416 -3 1 -112 2 -243 3 -201 1 -240 -1 -251 -14 -7 -8
-32 -53 -56 -100 -23 -47 -71 -139 -105 -205 -34 -66 -100 -193 -146 -282 -46
-90 -88 -162 -92 -160 -19 6 -206 383 -207 414 0 25 -4 31 -15 27 -9 -4 -18 1
-22 12 -3 11 -11 22 -17 26 -7 5 -4 8 7 8 41 0 73 74 43 99 -11 9 -18 8 -30
-4 -9 -9 -16 -14 -16 -10 0 3 -9 1 -19 -5 -16 -8 -22 -6 -29 7 -10 16 10 37
81 88 10 7 22 27 27 44 10 35 12 36 -63 -16 -59 -42 -91 -47 -95 -15 -3 18 2
23 27 28 17 4 36 13 42 20 6 8 15 11 20 8 5 -3 9 0 9 6 0 6 4 9 9 5 5 -3 12
-1 16 5 4 6 10 8 15 5 11 -7 18 4 24 39 5 25 3 27 -19 22 -13 -3 -58 -22 -100
-42 -43 -19 -80 -32 -84 -28 -3 4 0 9 7 11 7 3 19 11 27 20 8 8 15 11 15 6 0
-4 4 -2 8 4 4 7 17 14 27 16 11 2 37 11 59 20 21 9 42 17 47 17 11 0 11 -1 13
86 l2 70 -30 -10 c-17 -6 -37 -15 -43 -19 -7 -5 -17 -5 -23 -2 -5 3 -10 1 -10
-4 0 -6 -7 -11 -15 -11 -31 0 -14 19 33 36 26 10 49 21 52 24 3 4 13 9 23 13
9 3 17 12 18 19 0 7 1 68 3 136 2 111 0 122 -16 122 -10 0 -18 -4 -18 -9 0 -5
-15 -9 -32 -9 -32 1 -31 2 20 24 41 19 52 28 52 47 0 34 -8 38 -46 22 -19 -8
-34 -11 -34 -7 0 4 -4 3 -8 -3 -6 -8 -70 -35 -117 -49 -5 -2 -23 -8 -38 -14
-16 -7 -33 -12 -39 -12 -15 0 69 66 112 87 19 10 37 21 38 26 2 4 12 7 23 7
10 0 19 4 19 9 0 9 30 21 62 25 10 2 20 5 22 7 3 2 6 57 8 121 4 100 2 118
-11 121 -13 4 -13 5 1 6 12 1 17 8 15 21 -5 29 -11 32 -33 14z m-179 -104 c-3
-5 -11 -10 -16 -10 -6 0 -7 5 -4 10 3 6 11 10 16 10 6 0 7 -4 4 -10z m25 -144
c0 -2 -7 -7 -16 -10 -8 -3 -12 -2 -9 4 6 10 25 14 25 6z m-40 -11 c0 -14 -208
-100 -218 -90 -5 5 78 44 106 50 9 2 37 12 62 23 53 24 50 23 50 17z m-235
-95 c-3 -5 -12 -10 -18 -10 -7 0 -6 4 3 10 19 12 23 12 15 0z m144 6 c-11 -11
-109 -43 -109 -35 0 4 21 15 48 23 49 15 68 19 61 12z m-124 -46 c3 -5 1 -10
-4 -10 -6 0 -11 5 -11 10 0 6 2 10 4 10 3 0 8 -4 11 -10z m-26 -3 c-2 -1 -13
-9 -24 -17 -19 -14 -19 -14 -6 3 7 9 18 17 24 17 6 0 8 -1 6 -3z m350 -180
c-24 -11 -70 -32 -102 -48 -66 -33 -67 -33 -67 -18 0 5 5 7 10 4 6 -3 10 -2
10 3 0 17 140 80 163 74 4 -1 7 3 7 9 0 5 5 7 12 3 7 -4 -6 -15 -33 -27z
m-432 -151 c-74 -45 -117 -58 -52 -16 27 18 58 36 70 40 43 18 36 9 -18 -24z
m383 -54 c0 -4 -13 -13 -30 -19 -16 -6 -30 -8 -30 -4 0 4 12 12 28 18 15 6 28
11 30 12 1 1 2 -3 2 -7z m-356 -87 c-23 -17 -34 -19 -34 -4 0 5 4 8 9 4 5 -3
12 -1 16 5 3 5 11 10 18 10 6 0 2 -7 -9 -15z m266 -15 c-28 -22 -50 -26 -50
-9 0 5 3 8 8 5 4 -2 18 2 32 10 35 19 39 17 10 -6z m-420 -16 c0 -5 -106 -55
-125 -58 -5 -1 -21 -8 -33 -15 -13 -7 -26 -10 -29 -8 -7 8 33 28 112 58 39 15
71 27 73 28 1 0 2 -1 2 -5z m349 -15 c-7 -4 -17 -5 -21 -3 -4 3 -8 1 -8 -4 0
-5 -6 -9 -12 -9 -7 0 -26 -3 -43 -7 -23 -5 -20 -2 10 10 22 9 46 16 53 17 6 0
12 4 12 9 0 5 5 6 11 2 8 -4 7 -9 -2 -15z m-329 -39 c13 -8 13 -10 -2 -11 -35
-3 -39 -4 -46 -15 -7 -11 -153 -66 -159 -60 -2 2 22 14 54 27 32 12 74 33 93
45 41 27 41 27 60 14z m208 -5 c-7 -8 -48 -15 -48 -9 0 6 44 23 49 18 2 -2 2
-6 -1 -9z m-401 -150 c-9 -8 -18 -11 -22 -6 -3 6 3 14 12 20 24 13 29 6 10
-14z m-255 -34 c-19 -16 -45 -31 -58 -34 -31 -6 -25 1 34 34 61 35 64 34 24 0z
m378 -55 c0 -5 -71 -48 -85 -52 -5 -2 -34 -10 -63 -18 -28 -8 -50 -10 -46 -5
3 5 12 9 20 9 8 0 22 4 32 10 25 15 76 33 85 32 4 -1 7 3 7 9 0 5 4 8 9 4 5
-3 12 -1 16 5 6 10 25 14 25 6z m-266 -45 c-10 -10 -21 -17 -23 -15 -1 1 -15
-2 -30 -8 -14 -5 -33 -11 -41 -13 -8 -2 -24 -6 -35 -10 -18 -7 -18 -6 2 9 11
9 29 17 40 19 19 4 44 13 78 27 30 13 30 12 9 -9z m276 -52 c0 -6 -4 -8 -8 -5
-4 3 -25 -10 -45 -29 -20 -18 -50 -42 -67 -51 -16 -10 -30 -23 -30 -29 0 -5
-4 -4 -9 3 -13 22 0 61 23 68 11 4 24 12 28 18 14 22 108 44 108 25z m-510
-69 c-6 -11 -15 -20 -21 -20 -6 0 -8 -4 -5 -9 9 -14 -40 -52 -88 -66 -26 -8
-46 -10 -46 -5 0 6 3 10 8 10 4 0 25 16 47 35 43 38 51 44 81 62 28 18 36 15
24 -7z m510 16 c0 -2 -8 -10 -17 -17 -16 -13 -17 -12 -4 4 13 16 21 21 21 13z
m-646 -38 c-8 -19 -73 -58 -79 -48 -4 6 47 43 82 59 1 1 0 -5 -3 -11z m411
-66 c-10 -9 -150 -62 -163 -62 -21 0 24 23 88 44 85 29 87 29 75 18z m-725
-29 c-30 -15 -77 -37 -105 -51 -46 -22 -48 -22 -30 -3 11 11 54 33 95 50 93
36 113 38 40 4z m515 18 c-17 -15 -165 -69 -165 -60 0 5 6 9 14 9 7 0 19 7 26
15 7 8 15 13 19 11 3 -2 29 5 56 14 63 22 61 22 50 11z m735 -76 c0 -8 -2 -15
-4 -15 -2 0 -6 7 -10 15 -3 8 -1 15 4 15 6 0 10 -7 10 -15z m-920 -5 c0 -5 -4
-10 -9 -10 -5 0 -18 -3 -28 -6 -16 -6 -16 -5 2 9 23 19 35 21 35 7z m-125 -10
c-3 -5 -12 -10 -18 -10 -7 0 -6 4 3 10 19 12 23 12 15 0z m1105 -94 c0 -2 -8
-10 -17 -17 -16 -13 -17 -12 -4 4 13 16 21 21 21 13z m-815 -36 c-3 -5 -14
-10 -23 -9 -14 0 -13 2 3 9 27 11 27 11 20 0z m-142 -60 c-56 -27 -112 -50
-124 -50 -34 0 -19 9 98 56 142 57 151 55 26 -6z m-169 16 c-5 -13 -53 -33
-239 -101 -55 -19 -110 -40 -123 -45 -13 -6 -28 -10 -35 -10 -18 0 82 43 213
90 63 23 131 49 150 60 19 10 36 18 37 19 1 1 0 -5 -3 -13z m1181 -26 c21 -40
20 -43 -20 -64 -19 -11 -35 -22 -35 -26 0 -7 -61 -40 -72 -40 -3 0 -4 27 -4
60 1 50 4 60 19 60 9 0 17 4 17 9 0 7 47 26 72 30 4 1 14 -12 23 -29z m-412
-106 c-33 -25 -133 -75 -133 -67 0 4 -4 2 -9 -6 -7 -11 -15 -11 -40 -3 -17 6
-30 8 -30 4 3 -19 -2 -26 -10 -14 -6 11 -15 9 -45 -7 -40 -23 -61 -27 -51 -11
6 10 70 45 90 50 26 6 43 16 73 42 18 15 39 28 47 28 7 0 15 3 17 8 2 4 26 19
53 34 l50 27 3 -35 c2 -26 -2 -40 -15 -50z m-793 11 c0 -2 -24 -16 -52 -31
-57 -28 -55 -19 2 14 36 21 50 26 50 17z m80 -109 c0 -8 -123 -78 -152 -87
-46 -13 -25 4 65 50 78 41 87 44 87 37z m161 -59 c-5 -5 -17 -10 -27 -12 -11
-2 -20 -4 -21 -4 -2 -1 -5 -1 -8 -1 -3 0 -25 -9 -51 -20 -48 -21 -75 -26 -58
-11 12 11 107 47 117 43 4 -1 7 1 7 6 0 4 11 7 25 7 13 0 20 -4 16 -8z m274 4
c-6 -11 -45 -21 -45 -12 0 12 8 17 30 18 11 1 18 -2 15 -6z m-103 -29 c-24
-24 -130 -65 -149 -58 -8 3 -11 1 -8 -4 3 -6 2 -10 -4 -10 -6 0 -57 -22 -113
-49 -57 -27 -128 -59 -158 -71 -30 -12 -73 -30 -95 -40 -22 -10 -65 -28 -95
-39 l-55 -22 60 57 c60 57 152 108 235 133 25 7 50 16 55 20 6 4 57 22 115 40
58 19 112 37 120 41 8 4 25 5 38 4 12 -2 22 1 22 7 0 5 4 8 8 5 4 -2 14 -1 22
4 23 14 24 4 2 -18z m148 11 c0 -13 -81 -59 -135 -78 -43 -15 -78 -29 -107
-43 -5 -2 -8 -1 -8 1 0 9 129 83 180 104 62 24 70 26 70 16z m-810 -37 c0 -7
-114 -72 -145 -83 -17 -6 -54 -20 -82 -32 -90 -35 -59 -13 55 41 177 83 172
81 172 74z m130 -70 c0 -2 -7 -7 -16 -10 -8 -3 -12 -2 -9 4 6 10 25 14 25 6z
m446 -54 c-8 -13 -108 -61 -138 -66 -14 -2 -35 -9 -46 -15 -25 -13 -32 -14
-32 -3 0 4 24 16 53 26 50 18 82 30 137 54 32 14 32 14 26 4z m-771 -82 c-3
-5 -12 -10 -18 -10 -7 0 -6 4 3 10 19 12 23 12 15 0z m-40 -20 c-3 -5 -10 -10
-15 -10 -5 0 -21 -5 -37 -12 -15 -6 -30 -12 -33 -13 -3 -1 -21 -9 -40 -17
-145 -65 -154 -59 -17 10 94 48 157 66 142 42z m475 -2 c-14 -6 -28 -10 -32
-10 -5 1 -8 -3 -8 -10 0 -6 -3 -9 -6 -5 -4 3 -18 0 -33 -7 -42 -22 -203 -77
-197 -67 3 5 34 18 68 31 35 12 77 28 93 35 33 14 76 29 87 30 3 0 10 3 14 8
4 4 14 7 23 6 10 0 6 -5 -9 -11z m117 -14 c-3 -3 -12 -4 -19 -1 -8 3 -5 6 6 6
11 1 17 -2 13 -5z"/>
<path d="M1760 2340 c-9 -6 -10 -10 -3 -10 6 0 15 5 18 10 8 12 4 12 -15 0z"/>
<path d="M1778 4323 c-28 -34 -50 -75 -43 -81 4 -4 11 1 16 10 8 15 17 12 73
-27 69 -48 81 -53 89 -31 4 9 -20 31 -64 61 -56 39 -67 50 -58 61 7 8 10 17 7
19 -3 3 -11 -3 -20 -12z"/>
<path d="M2643 4273 c-14 -5 -18 -23 -5 -23 5 0 16 6 26 13 19 14 6 19 -21 10z"/>
<path d="M1664 4155 c-21 -26 -33 -49 -28 -54 5 -4 39 -29 75 -54 58 -41 68
-45 79 -32 15 18 11 21 -73 76 -51 34 -59 62 -19 67 31 5 53 -15 46 -42 -4
-16 0 -22 13 -22 10 -1 32 -3 50 -6 24 -5 33 -2 38 10 9 25 8 26 -32 30 -40 4
-55 16 -46 38 5 13 -26 34 -51 34 -8 0 -31 -20 -52 -45z"/>
<path d="M1580 4022 c-15 -5 -30 -21 -30 -33 0 -3 9 -17 21 -30 40 -47 54 -64
76 -92 12 -15 24 -24 27 -18 3 5 -1 14 -9 21 -19 16 -19 39 0 64 11 14 22 17
45 13 22 -5 32 -3 37 9 7 18 4 21 -22 26 -11 1 -22 5 -25 8 -11 11 -106 36
-120 32z m53 -47 c31 -8 31 -9 17 -36 -15 -26 -21 -24 -53 16 -30 37 -28 38
36 20z"/>
<path d="M1490 3906 c0 -2 22 -18 49 -35 26 -17 55 -39 64 -49 15 -16 15 -20
1 -40 -21 -30 -30 -28 -95 17 -42 29 -60 36 -68 28 -17 -17 -14 -21 44 -62 67
-46 101 -48 129 -9 11 15 21 34 22 41 2 14 -63 83 -78 83 -5 0 -16 7 -24 15
-14 13 -44 21 -44 11z"/>
<path d="M1310 3759 c-13 -5 -33 -18 -43 -27 -31 -28 -79 -105 -69 -111 54
-36 158 -107 162 -111 3 -3 17 -13 31 -22 27 -17 27 -17 51 20 63 95 73 138
43 190 -35 58 -114 86 -175 61z m67 -38 c7 0 31 -20 54 -43 37 -37 40 -45 35
-77 -3 -20 -10 -37 -16 -39 -5 -2 -10 -10 -10 -18 0 -8 -5 -14 -11 -14 -17 0
-189 123 -189 136 0 7 13 23 29 37 28 23 38 25 108 18z"/>
<path d="M4247 3440 c-9 -4 -12 -155 -10 -715 0 -390 2 -712 2 -715 1 -8 916
-4 981 4 84 10 110 15 170 33 30 9 60 17 66 19 34 6 149 64 220 111 156 101
255 240 291 405 12 56 8 221 -6 273 -12 43 -37 97 -90 192 -30 55 -177 190
-262 240 -155 91 -268 121 -569 149 -88 8 -774 12 -793 4z m823 -209 c127 -33
213 -88 269 -172 69 -104 94 -190 94 -334 1 -137 -20 -221 -80 -323 -62 -108
-186 -179 -338 -197 -48 -6 -192 -9 -246 -6 l-26 1 0 524 0 524 141 -3 c77 -1
161 -8 186 -14z"/>
<path d="M1054 3240 c-27 -11 -64 -57 -64 -81 0 -52 52 -99 108 -99 27 0 80
39 83 61 1 5 2 15 3 22 9 59 -73 119 -130 97z m52 -45 c45 -26 60 -52 49 -85
-11 -35 -81 -19 -121 27 -24 28 -25 43 -5 67 18 21 27 20 77 -9z"/>
<path d="M827 3136 c-6 -16 219 -177 237 -170 15 6 39 45 32 52 -4 3 -11 1
-17 -5 -9 -9 -40 8 -119 63 -60 41 -113 74 -118 74 -5 0 -12 -6 -15 -14z"/>
<path d="M857 2977 c-15 -22 -27 -46 -27 -52 0 -11 121 -95 136 -95 13 0 79
89 71 96 -2 3 -16 -9 -30 -26 -30 -35 -34 -36 -65 -12 l-23 18 21 27 c15 19
17 27 8 27 -7 0 -20 -11 -28 -24 l-15 -24 -24 19 -24 20 21 29 c12 16 18 31
14 34 -5 3 -20 -14 -35 -37z"/>
<path d="M800 2872 c-66 -23 -76 -118 -17 -157 42 -27 84 -27 118 2 23 20 29
32 27 56 -2 17 -9 32 -16 35 -9 3 -10 -2 -3 -20 12 -32 -8 -58 -45 -58 -43 0
-97 41 -99 75 -2 20 27 54 48 57 12 2 18 6 12 9 -5 4 -17 4 -25 1z"/>
<path d="M667 2694 c-25 -25 -53 -72 -46 -78 35 -30 142 -95 149 -91 22 13 7
34 -55 76 -66 45 -72 54 -42 73 24 15 52 -5 52 -36 0 -19 5 -25 25 -26 14 -1
34 -4 45 -6 22 -4 45 10 45 28 0 7 -10 12 -22 13 -64 1 -68 3 -68 27 0 46 -46
57 -83 20z"/>
<path d="M546 2524 c-10 -25 -8 -31 18 -59 13 -14 39 -44 57 -66 35 -43 52
-46 25 -4 -16 24 -16 27 5 56 15 22 25 27 32 20 16 -16 44 -13 50 4 7 18 7 18
-77 44 -82 25 -102 26 -110 5z m86 -39 c16 -6 16 -9 1 -31 l-15 -24 -29 32
c-16 18 -29 36 -29 40 0 6 35 -2 72 -17z"/>
<path d="M386 2456 c-14 -22 -13 -26 14 -62 16 -22 30 -45 30 -51 0 -7 4 -13
8 -13 4 0 16 -13 25 -30 10 -16 15 -30 12 -30 -3 0 -41 7 -83 16 -42 9 -85 18
-94 19 -16 4 -38 -21 -38 -42 0 -8 141 -108 180 -128 11 -5 20 -13 20 -17 0
-5 7 -8 15 -8 34 0 15 19 -82 84 -40 26 -73 49 -73 50 0 4 47 -5 155 -27 39
-8 71 -13 73 -12 2 2 -24 44 -57 94 -34 50 -61 93 -61 96 0 4 39 -21 87 -54
86 -58 88 -59 99 -39 13 24 13 25 -138 126 l-76 51 -16 -23z"/>
<path d="M2030 2099 c-19 -9 -73 -32 -120 -50 -47 -17 -89 -35 -93 -39 -12
-11 77 -3 99 8 11 5 46 20 79 32 68 26 88 40 77 56 -5 7 -18 5 -42 -7z"/>
<path d="M4727 1897 c-28 -21 -25 -50 7 -65 51 -25 107 18 73 56 -20 21 -58
26 -80 9z"/>
<path d="M607 1886 c-55 -15 -84 -38 -103 -82 -14 -34 -9 -70 14 -94 8 -8 51
-33 95 -55 96 -48 113 -68 78 -96 -33 -27 -73 -24 -109 9 -27 26 -32 27 -61
15 -17 -7 -31 -17 -31 -23 0 -5 21 -21 46 -36 88 -52 229 -36 282 31 52 66 14
134 -96 175 -75 28 -102 46 -102 69 0 48 84 60 128 18 22 -20 32 -23 50 -16
35 13 23 41 -28 66 -59 29 -105 34 -163 19z"/>
<path d="M3585 1890 c-43 -4 -50 -8 -51 -27 -1 -22 3 -23 66 -23 l67 0 -1
-161 c-1 -134 1 -162 14 -168 12 -5 71 -7 116 -2 7 1 10 50 10 149 -1 81 0
155 2 165 4 14 16 17 68 17 62 0 64 1 64 25 0 14 -6 25 -12 25 -164 4 -304 4
-343 0z"/>
<path d="M1290 1763 c-44 -14 -97 -45 -109 -65 -19 -31 -24 -84 -11 -122 20
-60 121 -99 200 -76 l28 8 -2 -54 c0 -30 1 -55 4 -55 3 -1 26 -2 53 -3 l47 -1
0 116 c0 113 -1 117 -22 121 -13 2 -36 1 -52 -2 -24 -4 -29 -10 -31 -38 -4
-44 -22 -63 -57 -60 -47 4 -64 40 -59 124 1 30 31 64 61 69 17 3 32 -3 51 -21
25 -24 29 -25 49 -11 l21 15 -27 21 c-15 12 -37 23 -48 26 -41 9 -81 12 -96 8z"/>
<path d="M2358 1764 c-2 -1 -17 -4 -34 -7 -66 -10 -112 -66 -108 -132 6 -76
68 -126 162 -129 70 -3 102 7 134 42 35 37 47 80 35 117 -11 33 -42 71 -70 87
-18 9 -114 28 -119 22z m56 -50 c17 -16 20 -38 17 -113 -1 -53 -22 -80 -56
-73 -31 6 -49 57 -43 123 7 73 44 102 82 63z"/>
<path d="M5221 1754 c-13 -10 -16 -33 -17 -128 0 -64 3 -117 8 -117 43 -7 43
-7 43 78 0 45 4 85 8 89 4 4 7 0 7 -8 0 -14 32 -80 67 -137 15 -23 16 -23 55
55 22 44 43 83 48 87 4 4 7 -25 7 -65 1 -40 1 -80 2 -88 1 -12 13 -15 51 -15
43 0 50 3 51 20 0 11 1 65 2 120 1 97 0 100 -24 112 -54 28 -89 11 -125 -59
l-26 -51 -29 51 c-16 28 -37 56 -47 61 -24 13 -59 10 -81 -5z"/>
<path d="M5716 1760 c-117 -35 -122 -197 -8 -246 55 -23 161 -14 200 17 62 50
62 140 1 196 -42 37 -128 52 -193 33z m116 -59 c5 -14 10 -50 9 -80 -1 -58
-20 -91 -52 -91 -56 0 -74 158 -23 196 22 17 54 5 66 -25z"/>
<path d="M926 1747 c-14 -5 -27 -14 -27 -20 -1 -7 -3 -52 -4 -101 -3 -120 3
-126 129 -126 85 0 94 2 99 20 5 18 0 20 -53 20 -60 0 -70 7 -70 51 0 16 7 19
53 19 45 0 53 3 54 19 1 16 -5 19 -40 19 -23 0 -48 0 -54 1 -14 1 -17 40 -5
56 7 11 11 11 78 14 28 1 35 5 32 19 -3 14 -15 17 -85 17 -45 0 -93 -3 -107
-8z"/>
<path d="M1556 1751 c-1 -3 -2 -50 -1 -103 1 -79 5 -101 20 -118 47 -52 205
-46 235 10 12 22 20 194 10 210 -3 5 -14 8 -25 6 -18 -3 -21 -13 -25 -97 -3
-52 -9 -100 -13 -106 -5 -7 -24 -13 -43 -13 -42 0 -54 23 -53 102 2 120 5 113
-51 114 -28 0 -52 -2 -54 -5z"/>
<path d="M1903 1751 c-5 -3 -8 -60 -8 -126 l0 -120 51 -3 50 -3 0 108 c-1 103
0 108 20 111 12 2 29 -4 38 -13 25 -25 20 -54 -11 -67 -16 -7 -30 -13 -32 -14
-2 -2 6 -16 18 -32 12 -17 21 -35 21 -41 0 -6 4 -11 9 -11 5 0 11 -9 14 -20 4
-17 14 -20 72 -20 l67 0 -48 56 c-38 45 -45 57 -33 65 8 5 17 9 22 9 4 0 12
11 17 25 13 35 -2 69 -40 85 -31 13 -212 22 -227 11z"/>
<path d="M2637 1747 c-92 -34 -76 -127 24 -143 49 -8 74 -26 66 -48 -5 -12
-20 -16 -72 -16 -60 0 -65 -2 -65 -21 0 -21 4 -21 90 -17 83 4 92 6 120 33 54
52 32 104 -55 129 -87 26 -84 56 7 56 38 0 46 3 44 18 -2 14 -14 17 -70 17
-37 0 -77 -4 -89 -8z"/>
<path d="M3112 1747 c-25 -11 -28 -30 -27 -136 2 -107 6 -111 132 -111 86 0
93 2 93 20 0 16 -8 19 -57 22 -58 3 -58 3 -61 36 -3 33 -3 34 35 32 58 -3 63
-1 63 19 0 16 -7 19 -37 17 -51 -3 -63 2 -63 28 0 22 13 48 24 47 3 -1 26 -1
50 -1 36 0 44 3 42 17 -3 15 -15 18 -89 18 -47 0 -94 -3 -105 -8z"/>
<path d="M3990 1661 c0 -91 2 -102 24 -127 20 -24 32 -28 91 -32 77 -5 129 14
142 52 4 12 7 63 8 114 l1 92 -27 0 c-26 0 -26 0 -27 -84 0 -47 -3 -94 -7
-105 -13 -43 -80 -38 -92 7 -3 15 -6 62 -7 104 l0 78 -53 0 -53 0 0 -99z"/>
<path d="M4349 1733 c-3 -115 -1 -215 5 -221 4 -3 25 -7 47 -7 47 -1 48 1 48
124 0 51 2 95 5 98 2 3 17 -1 33 -9 18 -9 29 -22 31 -39 3 -22 -2 -29 -28 -38
l-32 -11 23 -37 c53 -88 52 -88 117 -88 68 0 69 3 7 69 l-37 38 25 22 c31 27
40 52 26 78 -18 33 -70 48 -174 48 l-95 0 -1 -27z"/>
<path d="M4712 1633 l3 -128 30 0 c70 -1 70 0 70 134 l1 121 -53 0 -54 0 3
-127z"/>
<path d="M4926 1743 c-53 -28 -54 -92 -2 -117 17 -8 44 -17 60 -20 32 -6 56
-23 56 -41 0 -16 -23 -22 -88 -21 -47 1 -52 -1 -50 -19 3 -20 17 -21 143 -16
42 2 85 39 89 78 5 35 -28 74 -67 80 -32 5 -77 24 -77 34 0 14 18 20 65 21 37
0 45 4 45 20 0 17 -7 19 -73 17 -41 -1 -86 -8 -101 -16z"/>
</g>
</svg>
