<?xml version="1.0" encoding="UTF-8"?>
<svg xmlns="http://www.w3.org/2000/svg" xmlns:xlink="http://www.w3.org/1999/xlink" width="274.06pt" height="111.74pt" viewBox="0 0 274.06 111.74" version="1.1">
<defs>
<clipPath id="clip1">
  <path d="M 0 0 L 112 0 L 112 111.738281 L 0 111.738281 Z M 0 0 "/>
</clipPath>
<clipPath id="clip2">
  <path d="M 258 65 L 274.058594 65 L 274.058594 93 L 258 93 Z M 258 65 "/>
</clipPath>
</defs>
<g id="surface1">
<g clip-path="url(#clip1)" clip-rule="nonzero">
<path style=" stroke:none;fill-rule:evenodd;fill:rgb(17.999268%,18.798828%,57.299805%);fill-opacity:1;" d="M 18.664063 0 L 93.199219 0 C 98.390625 0 102.71875 1.855469 106.300781 5.4375 C 110.011719 9.023438 111.863281 13.472656 111.863281 18.664063 L 111.863281 93.199219 C 111.863281 98.265625 110.011719 102.714844 106.300781 106.300781 C 102.71875 109.886719 98.390625 111.738281 93.199219 111.738281 L 18.664063 111.738281 C 13.472656 111.738281 9.023438 109.886719 5.4375 106.300781 C 1.855469 102.714844 0 98.265625 0 93.199219 L 0 18.664063 C 0 13.472656 1.855469 9.023438 5.4375 5.4375 C 9.023438 1.855469 13.472656 0 18.664063 0 "/>
</g>
<path style=" stroke:none;fill-rule:evenodd;fill:rgb(100%,94.898987%,0%);fill-opacity:1;" d="M 9.269531 93.199219 L 18.046875 93.199219 L 18.046875 55.871094 L 9.269531 55.871094 Z M 51.296875 84.671875 C 51.296875 81.332031 54.632813 79.851563 61.183594 79.972656 L 61.183594 82.941406 L 61.0625 84.546875 C 60.691406 85.660156 59.949219 86.523438 58.960938 87.140625 C 57.972656 88.007813 56.734375 88.378906 55.375 88.378906 C 52.65625 88.378906 51.296875 87.140625 51.296875 84.671875 M 39.800781 65.265625 L 34.484375 65.265625 L 34.484375 55.871094 L 26.082031 55.871094 L 26.082031 65.265625 L 22.125 65.265625 L 22.125 71.691406 L 26.082031 71.691406 L 26.082031 82.941406 C 26.082031 86.773438 26.824219 89.613281 28.429688 91.222656 C 30.035156 92.953125 32.386719 93.816406 35.226563 93.816406 C 37.082031 93.816406 38.566406 93.570313 39.925781 93.074219 L 39.800781 86.523438 C 39.554688 86.773438 39.058594 86.894531 38.195313 86.894531 C 36.835938 86.894531 35.84375 86.402344 35.226563 85.414063 C 34.734375 84.671875 34.484375 83.433594 34.484375 81.582031 L 34.484375 71.691406 L 39.800781 71.691406 Z M 60.9375 74.535156 C 55.253906 74.535156 50.925781 75.398438 47.960938 77.253906 C 44.871094 79.109375 43.261719 81.828125 43.261719 85.414063 C 43.261719 87.636719 44.128906 89.613281 45.734375 91.222656 C 47.589844 92.953125 49.9375 93.816406 52.78125 93.816406 C 56.609375 93.816406 59.453125 92.582031 61.433594 90.234375 L 61.679688 90.234375 L 61.679688 93.199219 L 69.589844 93.199219 L 69.589844 76.761719 C 69.589844 73.050781 68.601563 70.207031 66.746094 68.105469 C 64.523438 65.757813 61.183594 64.523438 56.734375 64.523438 C 52.160156 64.523438 48.332031 65.386719 45.363281 67.242188 L 46.96875 72.679688 C 49.441406 71.199219 52.160156 70.457031 55.253906 70.457031 C 59.085938 70.457031 60.9375 71.691406 60.9375 74.289063 Z M 83.1875 65.265625 L 74.535156 65.265625 L 74.535156 81.457031 C 74.535156 85.78125 75.648438 88.996094 77.75 91.097656 C 79.601563 92.953125 82.074219 93.816406 85.164063 93.816406 C 89.492188 93.816406 92.703125 92.085938 94.683594 88.75 L 94.804688 88.75 L 94.804688 93.199219 L 102.46875 93.199219 L 102.46875 65.265625 L 93.816406 65.265625 L 93.816406 81.582031 C 93.816406 82.320313 93.695313 82.941406 93.570313 83.308594 C 92.582031 85.660156 90.851563 86.894531 88.253906 86.894531 C 84.917969 86.894531 83.1875 84.546875 83.1875 79.972656 Z M 85.414063 63.410156 L 91.46875 63.410156 L 98.886719 55.871094 L 90.726563 55.871094 Z M 85.414063 63.410156 "/>
<path style=" stroke:none;fill-rule:nonzero;fill:rgb(94.099426%,41.999817%,16.899109%);fill-opacity:1;" d="M 124.746094 84.703125 C 126.390625 85.835938 129.027344 86.730469 131.578125 86.730469 C 134.953125 86.730469 136.726563 84.890625 136.726563 82.207031 C 136.726563 79.617188 135.203125 78.0625 131.703125 76.320313 C 126.929688 73.964844 123.964844 70.574219 123.964844 65.863281 C 123.964844 59.925781 128.039063 55.359375 134.871094 55.359375 C 137.878906 55.359375 140.183594 56.160156 141.664063 57.007813 L 140.390625 62.707031 C 139.277344 62.046875 137.34375 61.152344 134.75 61.152344 C 131.539063 61.152344 130.097656 63.128906 130.097656 65.15625 C 130.097656 67.746094 131.660156 68.925781 135.53125 70.949219 C 140.597656 73.539063 142.859375 76.882813 142.859375 81.640625 C 142.859375 87.953125 138.703125 92.570313 131.332031 92.570313 C 128.203125 92.570313 125.035156 91.582031 123.550781 90.542969 "/>
<path style=" stroke:none;fill-rule:nonzero;fill:rgb(94.099426%,41.999817%,16.899109%);fill-opacity:1;" d="M 159.984375 76.226563 C 160.027344 73.492188 159.082031 70.148438 156.074219 70.148438 C 153.152344 70.148438 151.917969 73.632813 151.753906 76.226563 Z M 151.753906 81.078125 C 151.917969 85.550781 154.714844 87.339844 158.011719 87.339844 C 160.273438 87.339844 162.046875 86.871094 163.609375 86.257813 L 164.472656 91.0625 C 162.578125 92.003906 159.902344 92.570313 157.0625 92.570313 C 149.980469 92.570313 145.949219 87.484375 145.949219 79.332031 C 145.949219 71.796875 149.734375 65.296875 156.445313 65.296875 C 162.003906 65.296875 165.625 69.820313 165.625 78.296875 C 165.625 79.332031 165.585938 80.324219 165.460938 81.078125 "/>
<path style=" stroke:none;fill-rule:nonzero;fill:rgb(94.099426%,41.999817%,16.899109%);fill-opacity:1;" d="M 183.203125 76.082031 C 183.203125 72.738281 181.433594 70.808594 179.378906 70.808594 C 176.617188 70.808594 174.765625 74.011719 174.765625 78.957031 C 174.765625 83.527344 176.453125 86.636719 179.335938 86.636719 C 180.734375 86.636719 183.203125 85.597656 183.203125 81.171875 Z M 184.191406 65.910156 L 189.503906 65.910156 C 189.378906 67.792969 189.296875 70.101563 189.296875 73.730469 L 189.296875 88.519531 C 189.296875 93.652344 188.886719 103.167969 177.730469 103.167969 C 175.054688 103.167969 172.296875 102.554688 170.484375 101.378906 L 171.679688 96.054688 C 173.035156 96.902344 175.179688 97.75 177.605469 97.75 C 181.023438 97.75 183.285156 95.539063 183.285156 90.496094 L 183.285156 88.566406 L 183.203125 88.566406 C 182.054688 90.640625 179.992188 91.910156 177.480469 91.910156 C 172.046875 91.910156 168.632813 86.304688 168.632813 79.148438 C 168.632813 70.480469 173.035156 65.34375 178.101563 65.34375 C 180.980469 65.34375 182.835938 66.945313 183.863281 69.019531 L 183.945313 69.019531 "/>
<path style=" stroke:none;fill-rule:nonzero;fill:rgb(94.099426%,41.999817%,16.899109%);fill-opacity:1;" d="M 214.164063 65.863281 L 214.164063 84.089844 C 214.164063 87.199219 214.285156 89.886719 214.371094 92.097656 L 209.058594 92.097656 L 208.769531 88.613281 L 208.644531 88.613281 C 207.699219 90.308594 205.601563 92.617188 202.058594 92.617188 C 197.695313 92.617188 194.730469 89.367188 194.730469 81.5 L 194.730469 65.863281 L 200.824219 65.863281 L 200.824219 80.464844 C 200.824219 84.421875 201.8125 86.917969 204.324219 86.917969 C 206.300781 86.917969 208.070313 84.988281 208.070313 82.019531 L 208.070313 65.863281 "/>
<path style=" stroke:none;fill-rule:nonzero;fill:rgb(94.099426%,41.999817%,16.899109%);fill-opacity:1;" d="M 225.15625 70.429688 C 226.226563 67.039063 228.695313 65.296875 230.839844 65.296875 C 231.414063 65.296875 231.785156 65.34375 232.195313 65.4375 L 232.195313 72.078125 C 231.742188 71.984375 231.25 71.9375 230.632813 71.9375 C 227.875 71.9375 225.773438 74.058594 225.773438 78.535156 L 225.773438 92.097656 L 219.679688 92.097656 L 219.679688 74.058594 C 219.679688 70.808594 219.597656 68.21875 219.515625 65.863281 L 224.746094 65.863281 L 224.992188 70.429688 "/>
<path style=" stroke:none;fill-rule:nonzero;fill:rgb(94.099426%,41.999817%,16.899109%);fill-opacity:1;" d="M 244.996094 70.429688 C 241.621094 70.429688 240.429688 74.953125 240.429688 78.957031 C 240.429688 83.621094 241.992188 87.484375 244.957031 87.484375 C 247.839844 87.484375 249.402344 83.574219 249.402344 78.910156 C 249.402344 74.8125 248.128906 70.429688 244.996094 70.429688 M 255.578125 78.769531 C 255.578125 88.753906 249.980469 92.617188 244.875 92.617188 C 238.699219 92.617188 234.253906 87.625 234.253906 79.097656 C 234.253906 70.289063 238.90625 65.296875 245.121094 65.296875 C 251.546875 65.296875 255.578125 70.808594 255.578125 78.769531 "/>
<g clip-path="url(#clip2)" clip-rule="nonzero">
<path style=" stroke:none;fill-rule:nonzero;fill:rgb(94.099426%,41.999817%,16.899109%);fill-opacity:1;" d="M 259.738281 85.789063 C 260.929688 86.589844 263.195313 87.53125 265.089844 87.53125 C 267.230469 87.53125 268.257813 86.492188 268.257813 84.890625 C 268.257813 83.289063 267.476563 82.441406 264.964844 81.21875 C 260.683594 79.238281 259.117188 76.460938 259.117188 73.585938 C 259.117188 68.875 262.414063 65.296875 267.515625 65.296875 C 269.863281 65.296875 271.882813 65.957031 273.199219 66.757813 L 272.046875 71.65625 C 271.058594 71.042969 269.453125 70.289063 267.722656 70.289063 C 265.871094 70.289063 264.882813 71.375 264.882813 72.785156 C 264.882813 74.246094 265.746094 75 268.382813 76.273438 C 272.253906 78.109375 274.0625 80.652344 274.0625 84.28125 C 274.0625 89.273438 270.769531 92.570313 265.046875 92.570313 C 262.535156 92.570313 260.105469 91.863281 258.585938 90.828125 "/>
</g>
</g>
</svg>
