<svg xmlns:xlink="http://www.w3.org/1999/xlink" xmlns="http://www.w3.org/2000/svg" width="129" height="28" viewBox="0 0 129 28" fill="none"><g clip-path="url(#clip0_1197_2161)"><path fill-rule="evenodd" clip-rule="evenodd" d="M1.14059 13.0144C1.00021 12.9618 0 12.4646 0 11.2831V2.97138C0 1.18153 1.71381 0 3.06497 0H22.2035C23.8003 0 25.2684 1.20493 25.2684 3.07667V7.91978C25.2684 8.64508 24.6835 9.23 23.9582 9.23H17.9102C17.1849 9.23 16.6 8.64508 16.6 7.91978V7.4694C16.6 6.7441 16.015 6.15918 15.2897 6.15918H9.97869C9.25339 6.15918 8.66848 6.7441 8.66848 7.4694V7.87884C8.66848 8.39942 8.97848 8.8732 9.45812 9.08377C12.7571 10.5168 24.4437 15.2254 24.5314 15.2897C25.2509 15.7869 25.2626 16.2198 25.2743 17.0269V24.8239C25.2392 24.8239 25.3094 24.8239 25.2743 24.8239C25.2743 26.602 23.9465 28 22.4199 28C22.4199 27.9649 22.4199 28.0351 22.4199 28H2.86025C1.48569 28 0 26.5962 0 25.1281V19.5713C0 18.846 0.584917 18.2611 1.31022 18.2611H7.35826C8.08356 18.267 8.66848 18.8519 8.66848 19.5772V20.5365C8.66848 21.2618 9.25339 21.8467 9.97869 21.8467H15.2897C16.015 21.8467 16.6 21.2618 16.6 20.5365V20.168C16.6 19.6357 16.2783 19.1502 15.7811 18.9513L1.14059 13.0144Z" fill="#08392E"/><path fill-rule="evenodd" clip-rule="evenodd" d="M76.4019 27.1694V18.577C76.4019 18.1208 76.0276 17.7464 75.5713 17.7464H67.517V17.8458H67.4117V27.1694C67.4117 27.6257 67.0374 28 66.5811 28H59.6733C59.217 28 58.8427 27.6315 58.8427 27.1694V0.836442C58.8427 0.380207 59.2112 0.00585938 59.6733 0.00585938H66.5811C67.0374 0.00585938 67.4117 0.374357 67.4117 0.836442V9.53416C67.4117 9.9904 67.7861 10.3647 68.2423 10.3647H75.5713C76.0276 10.3647 76.4019 9.99625 76.4019 9.53416V0.836442C76.4019 0.380207 76.7704 0.00585938 77.2325 0.00585938H84.2456C84.7019 0.00585938 85.0762 0.374357 85.0762 0.836442V27.1694C85.0762 27.6257 84.7019 28 84.2456 28H77.2325C76.7762 28 76.4019 27.6315 76.4019 27.1694Z" fill="#08392E"/><path fill-rule="evenodd" clip-rule="evenodd" d="M28.93 25.0286C28.93 26.4909 30.2344 28 31.7902 28H52.3033C54.0756 28 55.1577 26.3857 55.1577 25.0286V1.32193C55.1577 0.596636 54.5728 0.0117188 53.8475 0.0117188H47.7994C47.0741 0.0117188 46.4892 0.596636 46.4892 1.32193V20.0217C46.4892 20.747 45.9043 21.332 45.179 21.332H38.8092C38.084 21.332 37.499 20.7412 37.499 20.0217V1.32193C37.499 0.596636 36.9141 0.0117188 36.1888 0.0117188H30.2461C29.5208 0.0117188 28.9358 0.596636 28.9358 1.32193V25.0286H28.93Z" fill="#08392E"/><path fill-rule="evenodd" clip-rule="evenodd" d="M89.0303 28H96.137C96.5114 28 96.8389 27.7485 96.9384 27.3859L97.6637 24.7128C97.7631 24.3501 98.0907 24.0986 98.465 24.0986H106.502C106.876 24.0986 107.204 24.3501 107.303 24.7128L108.028 27.3859C108.128 27.7485 108.455 28 108.83 28H115.802C116.375 28 116.773 27.4327 116.586 26.8945L107.221 0.561541C107.104 0.228138 106.788 0.0117188 106.437 0.0117188H98.5118C98.1608 0.0117188 97.8508 0.228138 97.7339 0.555692C96.1253 5.00107 89.5684 22.3029 88.2289 26.9413C88.0769 27.4736 88.4746 28 89.0244 28M105.104 17.413C105.221 17.8517 104.893 18.2845 104.437 18.2845H100.518C100.056 18.2845 99.7284 17.84 99.8571 17.4013L102.208 9.51663C102.32 9.15398 102.84 9.15983 102.94 9.52248L105.098 17.413H105.104Z" fill="#08392E"/><path fill-rule="evenodd" clip-rule="evenodd" d="M128.389 27.1694V0.836442C128.389 0.380207 128.015 0.00585938 127.559 0.00585938H120.651C120.195 0.00585938 119.82 0.374357 119.82 0.836442V27.1694C119.82 27.6257 120.189 28 120.651 28H127.559C128.015 28 128.389 27.6315 128.389 27.1694Z" fill="#08392E"/></g><defs><clipPath id="clip0_1197_2161"><rect width="128.389" height="28" fill="white"/></clipPath></defs></svg>