<?xml version="1.0" encoding="utf-8"?>
<!-- Generator: Adobe Illustrator 19.0.0, SVG Export Plug-In . SVG Version: 6.00 Build 0)  -->
<svg version="1.1" id="layer" xmlns="http://www.w3.org/2000/svg" xmlns:xlink="http://www.w3.org/1999/xlink" x="0px" y="0px"
	 viewBox="-153 -46 652 652" style="enable-background:new -153 -46 652 652;" xml:space="preserve">
<style type="text/css">
	.st0{fill:#F36C1C;}
	.st1{fill:#0C2D72;}
</style>
<path class="st0" d="M409.9,227.2c-0.3,0-0.6,0-1,0c-0.3-0.1-0.6,0-0.9-0.1c-0.3,0-0.6,0-1,0c-0.3-0.1-0.6,0-0.9-0.1
	c-0.3,0-0.6,0-1-0.1c-0.3-0.1-0.6,0-0.9-0.1c-0.3,0-0.5,0-0.8,0c-0.3-0.1-0.6,0-0.9-0.1c-0.3,0-0.6,0-1-0.1c-0.3-0.1-0.6,0-0.9-0.1
	c-0.3,0-0.5,0-0.8,0c-0.3-0.1-0.6,0-0.9-0.1c-0.3,0-0.5,0-0.8,0c-0.3-0.2-0.6,0-0.9-0.1c-0.3,0-0.5,0-0.8,0c-0.3-0.1-0.6,0-0.9-0.1
	c-0.3,0-0.5,0-0.8,0c-0.3-0.2-0.6,0-0.9-0.1c-0.3,0-0.6,0-1-0.1c-0.3-0.1-0.6,0-0.9-0.1c-0.3,0-0.5,0-0.8,0c-0.3-0.2-0.6,0-0.9-0.1
	c-0.3,0-0.6,0-1-0.1c-0.3-0.1-0.6,0-0.9-0.1c-0.3,0-0.5,0-0.8,0c-0.3-0.2-0.6,0-0.9-0.1c-0.3,0-0.7,0-1,0c-0.3-0.2-0.7,0-1.1-0.1
	c-0.3,0-0.7,0-1,0c-0.3-0.2-0.7,0-1.1-0.1c-0.4,0-0.8,0-1.1,0c-0.4-0.2-0.8,0-1.3-0.1c-0.4,0-0.8,0-1.1,0c-0.4-0.2-0.9,0-1.3-0.1
	c-0.4,0-0.8,0-1.1,0c-0.5-0.2-1,0-1.4-0.1c-0.5,0-1,0-1.5,0c-0.5-0.2-1.1,0-1.6-0.1c-0.5,0-1.1,0-1.6,0c-0.6-0.2-1.3,0-2-0.1
	c-0.7,0-1.4,0-2.2,0c-0.9-0.2-1.8,0-2.6-0.1c-1.6,0-3.2-0.1-4.7,0c-1.5-0.1-3.1-0.1-4.6,0c-1.5-0.1-3,0-4.6,0
	c-0.8,0.2-1.6-0.1-2.5,0.1c-0.6,0-1.2,0-1.8,0c-0.5,0.1-1.1-0.1-1.6,0.1c-0.4,0-0.9,0-1.3,0c-0.4,0.1-0.8,0-1.2,0.1
	c-0.3,0-0.7,0-1,0c-0.4,0.1-0.7,0-1.1,0.1l-1,0c-0.3,0.1-0.6,0-0.9,0.1c-1.8,0.2-3.6,0.4-5.3,0.6c-1.3,0.2-2.6,0.3-3.9,0.6
	c-3.2,0.6-6.3,1.2-9.5,2c-4.2,1-8.2,2.3-12.2,3.7c-3.6,1.2-7.1,2.7-10.6,4.1c-4.7,1.9-9.3,3.8-14.1,5.6c-4.1,1.5-8.2,3-12.4,4.3
	c-3.7,1.2-7.4,2.2-11.1,3.2c-6.1,1.6-12.2,3-18.4,4.2c-3.3,0.6-6.7,1.1-10,1.7c-2.3,0.4-4.7,0.6-7.1,0.9c-0.3,0.1-0.6,0-0.9,0.1
	c-0.3,0-0.6,0-1,0.1c-0.3,0.1-0.7,0-1.1,0.1c-0.3,0-0.7,0-1,0c-0.4,0.1-0.9,0-1.3,0.1c-0.5,0-1,0-1.5,0c-0.7,0.1-1.5,0-2.2,0.1
	c-0.2,0-0.5,0.1-0.9-0.2c2.1-1.4,4.4-2.4,6.5-3.7c3.8-2.2,7.6-4.5,11.4-6.7c2.8-1.6,5.5-3.1,8.3-4.7c4-2.2,8-4.3,12-6.4
	c4.5-2.3,9-4.5,13.6-6.6c3.6-1.7,7.3-3.3,11-4.9c4-1.7,8.1-3.3,12.3-4.7c5.6-2,11.3-3.7,17.2-4.9c2.9-0.6,5.8-1,8.7-1.5
	c0.3-0.1,0.6,0,0.9-0.1c0.7,0.1,1.5-0.1,2.2-0.2c0.3-0.1,0.6,0,0.9-0.1c0.3,0,0.5,0,0.8,0c0.4-0.1,0.8,0,1.2-0.1c0.3,0,0.7,0,1,0
	c0.5-0.2,1,0,1.4-0.1c0.5,0,1,0,1.5,0c0.7-0.2,1.4,0.1,2.1-0.1h10.7c0.8,0.2,1.5,0,2.3,0.1c0.6,0,1.2,0,1.8,0c0.5,0.2,1,0,1.4,0.1
	l1.5,0c0.4,0.2,0.7,0,1.1,0.1c0.4,0,0.8,0,1.2,0c0.3,0.2,0.7,0,1.1,0.1l1,0c0.3,0.2,0.7,0,1.1,0.1c0.3,0,0.5,0,0.8,0
	c0.3,0.2,0.7,0,1.1,0.1c0.3,0,0.5,0,0.8,0c0.3,0.1,0.6,0,0.9,0.1c0.7,0.1,1.5,0.3,2.2,0.2c0.3,0.2,0.6,0,0.9,0.1
	c3.4,0.5,6.8,0.9,10.3,1.4c3.7,0.5,7.4,1.1,11.2,1.8c4,0.7,8,1.4,11.9,2.2c3.6,0.7,7.2,1.4,10.7,2c4.2,0.8,8.4,1.5,12.6,2.3
	c4.1,0.7,8.2,1.4,12.3,2c3,0.4,6.1,0.9,9.1,1.1c0.3,0.2,0.6,0,0.9,0.1c0.3,0,0.5,0,0.8,0c0.3,0.1,0.6,0,0.9,0.1c0.3,0,0.5,0,0.8,0
	c0.3,0.2,0.7,0,1.1,0.1c0.3,0,0.6,0,1,0c0.4,0.2,0.7,0,1.1,0.1c0.4,0,0.8,0,1.1,0c0.5,0.2,1,0,1.4,0.1l1.5,0c0.7,0.2,1.4,0,2.1,0.1
	c2.6,0.1,5.2,0.1,7.7,0c0.6-0.1,1.2,0.1,1.8-0.1c0.4,0,0.9,0,1.3,0c0.4-0.1,0.7,0,1.1-0.1c0.3,0,0.6,0,1,0c0.3-0.1,0.6,0,0.9-0.1
	c0.2,0,0.4,0,0.6,0c0.3-0.1,0.6,0,0.9-0.1c2.7-0.2,5.2-0.8,7.8-1.4c0.9-0.2,1.7-0.5,2.6-0.7c0.5-0.1,0.9,0,1.4,0.2v0.5
	c-0.7,0.2-1.1,0.7-1.7,1c-2.3,1.1-4.7,1.8-7.1,2.3c-2.5,0.6-5,1-7.5,1.3c-0.3,0.1-0.6,0-0.9,0.1c-0.3,0-0.5,0-0.8,0
	c-0.3,0.1-0.6,0-0.9,0.1c-0.3,0-0.6,0-1,0c-0.4,0.1-0.8,0-1.2,0.1c-0.4,0-0.9,0-1.3,0c-0.6,0.2-1.2-0.1-1.8,0.1c-0.9,0-1.8,0-2.7,0
	c-2.9,0.1-5.7,0.1-8.6,0c-1,0-2,0-3,0c-0.8-0.2-1.6,0-2.5-0.1l-2,0c-0.5-0.2-1.1,0-1.6-0.1c-0.5,0-1.1,0-1.7,0
	c-0.5-0.2-1.1,0-1.6-0.1c-0.4,0-0.9,0-1.3,0c-0.4-0.2-0.8,0-1.3-0.1l-1.3,0c-0.5-0.2-1,0-1.4-0.1c-0.3,0-0.7,0-1,0
	c-0.4-0.2-0.8,0-1.2-0.1c-0.3,0-0.7,0-1,0c-0.4-0.2-0.8,0-1.2-0.1c-0.3,0-0.7,0-1,0c-0.4-0.2-0.8,0-1.2-0.1c-0.3,0-0.5,0-0.8,0
	c-0.3-0.2-0.7,0-1.1-0.1c-0.3,0-0.7,0-1,0C410.6,227.2,410.2,227.4,409.9,227.2"/>
<path class="st0" d="M219.4,251.7c-0.7,0.9-1.8,1.2-2.7,1.8c-1.1,0.7-2.3,1.3-3.6,2c0.3,0,0.4,0.1,0.5,0.1c0,0.1,0,0.1-0.1,0.1
	c-0.6-0.1-1.2,0-1.8,0.3c-5.7,2.7-11.6,4.6-17.8,5.9c-2.1,0.4-4.3,0.8-6.4,1c-0.3,0.1-0.6,0-0.9,0.1c-0.3,0-0.5,0-0.8,0
	c-0.3,0.1-0.7,0-1.1,0.1c-0.3,0-0.7,0-1,0c-0.5,0.1-1,0-1.4,0.1c-1.1,0-2.2,0-3.4,0c-0.3,0.1-0.6,0.1-0.8,0c-1.1,0-2.2,0-3.4,0
	c-0.5-0.2-1,0-1.4-0.1c-0.4,0-0.8,0-1.1,0c-0.3-0.2-0.7,0-1.1-0.1c-0.2,0-0.4,0-0.7,0c-0.3-0.2-0.6,0-0.9-0.1
	c-2.7-0.2-5.4-0.7-8-1.3c-4-1-8-2.1-11.9-3.6c-3.7-1.4-7.3-3.1-10.8-4.9c-4-2.1-7.9-4.6-11.6-7.2c-3.7-2.6-7.2-5.6-11-7.9
	c-3.8-2.4-7.7-4.5-11.9-6.3c-3.3-1.5-6.6-2.7-10.1-3.8c-2.7-0.9-5.5-1.6-8.3-2.2c-2.5-0.5-5-1-7.5-1.5c-1.6-0.3-3.3-0.5-5-0.7
	c-0.3-0.2-0.6,0-0.9-0.1c-0.2,0-0.4,0-0.6,0c-0.3-0.2-0.6,0-0.9-0.1c-0.3,0-0.5,0-0.8,0c-0.3-0.1-0.6,0-0.9-0.1c-0.3,0-0.6,0-1,0
	c-0.3-0.2-0.7,0-1.1-0.1c-0.4,0-0.8,0-1.2,0c-0.5-0.2-1,0-1.4-0.1c-0.5,0-1,0-1.5,0c-0.6-0.2-1.3,0-1.9-0.1c-1,0-2,0-3,0
	c-2.4-0.1-4.8-0.1-7.1,0c-1.1,0-2.2,0-3.4,0c-0.7,0.2-1.4-0.1-2.1,0.1c-0.6,0-1.2,0-1.8,0c-0.5,0.1-1,0-1.4,0.1c-0.5,0-1,0-1.5,0
	c-0.4,0.1-0.7,0-1.1,0.1c-0.4,0-0.8,0-1.1,0c-0.4,0.1-0.8,0-1.2,0.1c-0.4,0-0.8,0-1.2,0c-0.3,0.1-0.6,0-0.9,0.1c-0.3,0-0.5,0-0.8,0
	c-0.3,0.1-0.7,0-1.1,0.1c-0.3,0-0.5,0-0.8,0c-0.3,0.1-0.7,0-1.1,0.1c-0.8,0.1-1.6,0.1-2.4,0.2c-0.3,0.1-0.6,0-0.9,0.1
	c-0.2,0-0.4,0-0.7,0c-0.3,0.1-0.6,0-0.9,0.1c-1.6,0.2-3.2,0.3-4.8,0.5c-1.6,0.2-3.3,0.4-4.9,0.7c-1.9,0.3-3.8,0.5-5.7,0.8
	c-2.5,0.4-5,0.8-7.5,1.2c-2.2,0.4-4.3,0.8-6.5,1.1c-2.2,0.4-4.4,0.7-6.6,1.1c-3.3,0.6-6.7,1.2-10,1.8c-3.6,0.6-7.2,1.3-10.8,1.8
	c-2.6,0.4-5.1,0.8-7.7,1.2c-1.7,0.2-3.3,0.4-5,0.6c-0.3,0.1-0.6,0-0.9,0.1c-0.2,0-0.4,0-0.6,0c-0.3,0.1-0.6,0-0.9,0.1
	c-0.8,0.1-1.6,0.1-2.4,0.2c-0.3,0.1-0.7,0-1.1,0.1c-0.3,0-0.5,0-0.8,0c-0.3,0.1-0.7,0-1.1,0.1c-0.3,0-0.7,0-1,0
	c-0.3,0.1-0.7,0-1.1,0.1c-0.3,0-0.7,0-1,0c-0.4,0.1-0.8-0.1-1.2,0.1c-0.4,0-0.8,0-1.2,0c-0.5,0.1-1-0.1-1.4,0.1c-0.4,0-0.9,0-1.3,0
	c-0.6,0.2-1.2-0.1-1.8,0.1c-0.6,0-1.2,0-1.8,0c-0.7,0.2-1.4-0.1-2.1,0.1c-1.3,0-2.6,0-3.9,0c-2.3,0.1-4.6,0.1-6.8,0
	c-1.2,0-2.4,0-3.5,0c-0.7-0.2-1.4,0-2.1-0.1c-0.5,0-1.1,0-1.6,0c-0.5-0.2-1,0-1.4-0.1c-0.4,0-0.9,0-1.3,0c-0.4-0.2-0.7,0-1.1-0.1
	c-0.3,0-0.5,0-0.8,0c-0.4-0.2-0.8,0-1.2-0.1c-0.8-0.1-1.7-0.1-2.5-0.2c-0.3-0.1-0.6,0-0.9-0.1c-0.2,0-0.4,0-0.6,0
	c-0.3-0.2-0.6,0-0.9-0.1c-2.5-0.4-5-0.6-7.5-1.1c-3.5-0.6-6.9-1.5-10.3-2.4c-2.9-0.8-5.7-1.9-8.5-3.2c-1.2-0.5-2.3-1.2-3.3-2.1
	c-0.4-0.4-0.8-0.8-0.4-1.5c0.3-0.1,0.7-0.1,1,0c2.3,0.7,4.7,1.4,7,2.1c4.2,1.2,8.4,2.1,12.6,2.9c2.3,0.4,4.7,0.8,7.1,0.9
	c0.3,0.2,0.6,0,0.9,0.1c0.3,0,0.5,0,0.8,0c0.3,0.2,0.6,0,0.9,0.1c0.3,0,0.7,0,1,0c0.4,0.2,0.8,0,1.2,0.1l1.1,0
	c0.5,0.2,1.1,0,1.6,0.1c0.7,0,1.3,0.1,2,0c1.2,0.2,2.4,0,3.7,0.1c0.9,0,1.7,0,2.6,0c1.3-0.2,2.6,0.1,3.8-0.1c0.7,0,1.5,0,2.2,0
	c0.5-0.1,1,0,1.4-0.1c0.5,0,1,0,1.5,0c0.4-0.1,0.8,0,1.2-0.1c0.3,0,0.7,0,1,0c0.3-0.1,0.7,0,1.1-0.1c0.3,0,0.7,0,1,0
	c0.3-0.1,0.6,0,0.9-0.1c0.3,0,0.5,0,0.8,0c0.3-0.1,0.6,0,0.9-0.1c0.2,0,0.4,0,0.7,0c0.3-0.1,0.6,0,0.9-0.1c2.8-0.2,5.6-0.7,8.4-1.1
	c7.3-1.2,14.4-2.7,21.5-4.5c6.8-1.8,13.5-3.7,20.2-5.9c11.3-3.6,22.5-7.3,34-10.1c6.4-1.6,12.8-3.1,19.3-4.2
	c1.5-0.2,2.9-0.4,4.4-0.6c0.3-0.1,0.6,0,0.9-0.1c0.3,0,0.7,0,1,0c0.3-0.1,0.6,0,0.9-0.1c0.4,0,0.8,0,1.1,0c0.6-0.2,1.2,0.1,1.8-0.1
	c2.2,0,4.5,0,6.7,0c0.5,0.2,1.1,0,1.6,0.1c0.4,0,0.8,0,1.1,0c0.3,0.2,0.7,0,1.1,0.1l0.6,0c0.3,0.2,0.6,0,0.9,0.1
	c4.1,0.6,8.1,1.4,12.1,2.6c4.5,1.4,8.9,3.3,13.1,5.5c5.9,3.1,11.5,6.8,17,10.6c7.5,5.2,14.9,10.4,22.8,14.9
	c6.5,3.6,13.2,6.6,20.3,8.8c4.5,1.4,9,2.4,13.7,3.1c0.5,0.1,0.9,0.2,1.4,0.2c0.3,0.2,0.6,0,0.9,0.1c0.7,0.2,1.3,0.3,2,0.2
	c0.3,0.2,0.6,0,0.9,0.1c0.3,0,0.6,0,1,0c0.3,0.1,0.6,0,0.9,0.1c0.4,0,0.8,0,1.2,0c0.3,0.2,0.7,0,1.1,0.1c0.4,0,0.8,0,1.1,0
	c0.4,0.2,0.7,0,1.1,0.1c0.4,0,0.8,0,1.2,0c0.3,0.2,0.7,0,1.1,0.1c0.4,0,0.8,0,1.1,0c0.4,0.2,0.8,0,1.3,0.1c0.4,0,0.9,0,1.3,0
	c0.4,0.2,0.8,0,1.2,0.1c0.4,0,0.9,0,1.3,0c0.4,0.2,0.9,0,1.3,0.1c0.5,0,1,0,1.5,0c0.5,0.2,1.1,0,1.6,0.1c0.5,0,1,0,1.5,0
	c0.5,0.2,1,0,1.4,0.1c0.7,0,1.3,0,2,0c0.6,0.2,1.2,0,1.8,0.1c0.7,0,1.4,0,2.2,0c0.8,0.2,1.6,0,2.5,0.1c1.1,0,2.3,0,3.4,0
	c1,0.2,1.9,0.1,2.9,0.1c2.3,0,4.6,0.1,6.8-0.1c0.8,0,1.6,0,2.3,0c0.5-0.2,1.1,0.1,1.6-0.1l1.1,0c0.3-0.1,0.7,0,1.1-0.1
	C218,252.1,218.7,252,219.4,251.7"/>
<path class="st1" d="M-88.8,270c2.6,0.4,5.1,0.9,7.6,1.7c9.5,3.4,15.4,10.1,18.3,19.7c0.3,1.1,0.4,2.2,0.6,3.2c0.1,0.3,0.1,0.7,0,1
	c-3.6,0-7.1,0-10.7-0.1c-2.6,0-5.4-1.9-6.4-4.2c-1.2-2.9-3.4-4.6-6.2-5.8c-1.8-0.8-3.7-1.2-5.7-1.5c-0.7-0.1-1.4-0.1-2.1-0.2
	c-1.4-0.1-2.8-0.1-4.2,0c-4.8,0.2-9.8,3.1-11.1,7.8c-1.1,3.6,0.2,7.1,3.5,8.9c3.9,2.1,8.1,3.4,12.3,4.7c5.3,1.5,10.7,2.8,15.8,4.8
	c3.9,1.5,7.5,3.4,10.4,6.5c3,3,4.7,6.7,5.3,10.9c0.1,0.8,0.2,1.6,0.4,2.3c0.1,0.9,0.1,1.8,0,2.7c-0.5,4.8-1.9,9.3-4.7,13.3
	c-2,2.9-4.5,5.1-7.5,6.9c-3.6,2.1-7.4,3.2-11.5,3.8c-0.3,0-0.7,0.1-1,0.2c-0.3,0.1-0.6,0-0.9,0.1c-0.4,0-0.8-0.1-1.1,0.2h-1.4
	c-0.3-0.1-0.7-0.1-1,0h-2.6c-0.5-0.1-0.9-0.1-1.4,0H-96c-1.9-0.2-3.7-0.3-5.6-0.6c-5.7-1.1-10.8-3.5-15.2-7.3
	c-4.9-4.2-7.9-9.5-9.3-15.8c-0.2-0.8-0.2-1.6-0.3-2.5c0-0.3,0.1-0.6-0.1-0.9v-0.7c4.5,0,9,0.1,13.5,0c0.7,0.1,1.5,0,2.2,0.1
	c0.3,0,0.6-0.1,0.8,0.1c0.5,4.2,2.3,7.5,6,9.6c2.3,1.3,4.6,2.3,7.3,2.4c0.3,0.2,0.7,0,1.1,0.1c1.8,0.1,3.6,0.1,5.3,0
	c0.3-0.1,0.6,0,0.9-0.1c4.1-0.4,7.7-1.7,10-5.3c1.7-2.7,1.5-6.3-0.6-8.7c-1.3-1.6-3.1-2.6-4.9-3.4c-5.3-2.4-11.1-3.4-16.6-4.8
	c-3.5-0.9-7-2-10.3-3.5c-2.9-1.3-5.6-2.9-8-5.1c-2.5-2.3-4.2-5.1-5.2-8.3c-0.5-1.5-0.8-3-0.9-4.5c-0.1-0.4,0-0.7-0.1-1.1
	c0-1,0-2,0-2.9c0.2-0.4,0-0.7,0.1-1.1c0.2-2.8,1-5.4,2.3-7.8c1-1.9,2.2-3.6,3.6-5.1c3.3-3.5,7.3-6,11.8-7.8c2.2-0.9,4.4-1.3,6.7-1.7
	c0.3-0.1,0.6,0,0.9-0.1c0.2,0,0.3,0,0.5,0c0.4-0.1,0.8,0,1.2-0.1l1.5,0c1.4-0.1,2.7-0.1,4.1,0c0.5,0,1.1,0,1.6,0
	c0.4,0.2,0.7,0,1.1,0.1c0.3,0,0.5,0,0.8,0C-89.4,270-89.1,269.9-88.8,270 M380.2,356.6c0.3,0.1,0.6,0,0.9,0.1c0.4,0,0.8-0.1,1.1,0.2
	h0.3c0.3-0.2,0.6-0.1,0.9-0.1c0.8,0,1.7,0.1,2.5-0.1c0.5,0,1,0,1.5,0c0.3-0.2,0.7,0,1.1-0.1c3.3-0.4,6.5-1.1,9.5-2.4
	c3.6-1.6,6.8-3.8,9.5-6.9c2.8-3.2,4.7-6.7,5.8-10.8c0.2-0.7-0.1-0.7-0.6-0.7c-3.8,0-7.6,0-11.4,0c-0.3,0.2-0.6,0-0.9,0.1
	c-0.9,0.2-1.8,0.3-2.5,0.9c-1.1,1-2.2,2-3.3,3c-1.7,1.4-3.7,2.4-5.9,2.6c-0.3,0.2-0.6,0-0.9,0.1c-0.4,0.1-0.7,0.1-1.1,0
	c-0.9,0.1-1.8,0.1-2.7,0c-0.3,0.1-0.6,0-1,0c-0.3-0.1-0.6,0-0.9-0.1c-2.8-0.3-5.4-1.4-7.4-3.3c-4.5-4.1-6-9.5-6.3-15.3
	c-0.1-1-0.1-2,0-3.1c0-0.4,0-0.9,0-1.3c0.1-0.3,0-0.7,0.1-1.1c0-1.8,0.5-3.6,1-5.3c2.2-6.8,7.7-10.2,14-10.5c1.1-0.1,2.2-0.1,3.2,0
	c1,0,2,0.3,2.9,0.5c2.7,0.8,5,2.2,6.4,4.8c0.2,0.3,0.3,0.3,0.6,0.3c5.1,0,10.3,0,15.5,0c0-0.2-0.1-0.4-0.1-0.5
	c-1.6-4.6-3.8-8.8-7.6-11.9c-1.7-1.4-3.5-2.6-5.5-3.6c-3.5-1.8-7.3-2.7-11.2-3.1c-0.4-0.1-0.9,0-1.3-0.1c-1.3,0-2.6,0-3.8,0
	c-0.4,0.2-0.8,0-1.3,0.1c-3.4,0.4-6.7,1.2-9.8,2.7c-4.1,2-7.7,4.7-10.6,8.3c-1.8,2.2-3.2,4.6-4.4,7.2c-1.4,3.2-2.3,6.6-2.7,10.1
	c-0.1,0.3,0,0.6-0.1,0.9c0,0.2,0,0.4,0,0.7c-0.1,0.4,0,0.8-0.1,1.2c0,0.5,0,1,0,1.5c-0.1,1-0.1,2.1,0,3.1l0,1.3
	c0.2,0.3,0,0.7,0.1,1.1c0.2,1.6,0.4,3.3,0.8,4.9c0.7,3.4,1.9,6.6,3.6,9.7c1.6,2.9,3.6,5.6,6.2,7.9c2.6,2.3,5.5,4.2,8.9,5.3
	C375.5,355.9,377.8,356.4,380.2,356.6 M473.5,324.2c0,0.1,0.1,0.1,0.2,0V310c0-0.1-0.1-0.1-0.2,0L473.5,324.2 M473.6,336.2
	c-0.1-0.1-0.1-0.1-0.2,0c0,4.1,0,8.2,0,12.2c0,0.3-0.1,0.6,0.2,0.8V336.2z M473.6,324.2c-0.1,0-0.1,0-0.2,0c0,4,0,8,0,12
	c0.1,0,0.1,0,0.2,0V324.2z M-92.8,357c-0.5-0.2-0.9-0.3-1.4,0H-92.8z M248.2,357c-0.5-0.2-0.9-0.3-1.4,0H248.2z M251.3,357
	C251.3,357,251.3,356.9,251.3,357c0.1-0.1,0.1-0.1,0-0.1c-0.4,0-0.8-0.1-1.2,0.1H251.3z M473.5,309.1c0,0.1,0.1,0.1,0.1,0v-1
	c0,0-0.1,0-0.2,0C473.5,308.4,473.5,308.8,473.5,309.1 M-89.2,357c-0.3-0.3-0.7-0.2-1,0H-89.2z M252.2,357c-0.2-0.3-0.6-0.1-0.8-0.1
	c0,0,0,0.1,0,0.1H252.2z M473.5,309.1c0,0.3,0,0.6,0,0.9c0,0,0.1,0,0.2,0v-0.9C473.6,309.1,473.5,309.1,473.5,309.1 M144.7,289.3
	c-0.4,0.2-0.9,0-1.3,0.1c-0.4,0.1-0.8,0.1-1.2,0.2c-6,0.8-11.4,2.7-16.2,6.5c-2.7,2.2-4.6,5-5.9,8.2c-1.2,2.8-1.9,5.7-2.1,8.7
	c-0.1,0.3,0,0.6-0.1,0.9c0,0.4,0,0.8,0,1.1c-0.2,0.9,0.1,1.9-0.1,2.8c0.1,1.1,0.1,2.2,0,3.3c0.1,0.3,0.1,0.7,0.1,1
	c0,11,0,22.1,0,33.1c0,0.3-0.2,0.6,0.1,0.9c0.3,0,0.6,0,0.9,0c4.9,0,9.8,0,14.7,0c0.9,0,1-0.3,1-1.1c0-12.9,0-25.7,0-38.6
	c0-0.7,0-1.4,0.1-2.1c0.3-3.9,2-6.9,5.6-8.6c3.9-1.8,7.8-1.7,11.6,0.2c2.7,1.3,4.2,3.5,4.7,6.4c0.2,1.3,0.3,2.5,0.3,3.8
	c0,12.9,0,25.8,0,38.7c0,0.8,0.1,1.1,1,1c4.9,0,9.8,0,14.7,0c0.8,0,1-0.2,1-1c0-12.9,0-25.8,0-38.7c0-1.1,0-2.2,0.2-3.3
	c0.4-2.7,1.6-5,4-6.4c3.3-2,6.7-2.5,10.4-1.5c3.8,1.1,6.7,3.3,7.6,7.4c0.3,1.2,0.4,2.5,0.4,3.7c0,10.5,0,21.1,0,31.6
	c0,4.8,2.8,7.8,7.5,8.1c3,0.2,5.9,0,8.9,0.1c0.7,0,0.5-0.4,0.5-0.8c0-3.7,0-7.4,0-11.1c0-9.5,0-19.1,0-28.6c-0.2-0.4,0-0.8-0.1-1.3
	c-0.1-0.7-0.3-1.4-0.4-2.1c-1.1-6.8-4.4-12.3-9.8-16.5c-4.5-3.5-9.6-5.6-15.2-6.2c-0.4-0.1-0.9,0-1.3-0.1c-1.2,0-2.4,0-3.6,0
	c-0.4,0.2-0.8,0-1.3,0.1c-2.5,0.3-5,0.8-7.4,1.7c-3,1.2-5.7,2.9-7.9,5.3c-0.7,0.8-0.7,0.8-1.5,0.1c-2.2-2.1-4.6-4-7.5-5.2
	c-2.8-1.2-5.7-1.7-8.7-2c-0.5-0.1-1.1,0.1-1.6-0.1C146.2,289.3,145.5,289.3,144.7,289.3 M-6.3,290.8c-0.5,0.2-1,0-1.4,0.1
	c-0.4,0.1-0.8,0.2-1.3,0.2c-2,0.4-3.7,1.5-4.8,3.2c-0.8,1.3-1.2,2.7-1.2,4.3c-0.1,0.3,0,0.6,0,0.9c0,3.4,0,6.7,0,10.1
	c0,0.3-0.1,0.5,0.1,0.8c0,4.2,0,8.3,0,12.5c0,2.4,0,4.8,0,7.3c-0.1,0.4,0,0.7-0.1,1.1c-0.1,0.5-0.1,0.9-0.2,1.4
	c-0.6,2.4-1.7,4.5-3.6,6c-1.9,1.5-4,2.5-6.4,2.7c-0.4,0.1-0.7,0-1.1,0.1c-0.3,0-0.7,0-1,0c-0.4-0.1-0.8,0-1.3-0.1
	c-1.4,0-2.8-0.5-4-1.2c-3.1-1.9-4.3-4.9-4.5-8.3c-0.2-0.4,0-0.8-0.1-1.3c0-0.7,0-1.3,0-2c0-12.3,0-24.5,0-36.8c0-0.7-0.1-1.1-0.9-1
	c-0.1,0-0.2,0-0.3,0c-0.3,0.1-0.6,0.1-0.9,0.1c-4.6,0-9.2,0-13.8,0c-0.3,0-0.6-0.1-0.9,0.1c0,4.7,0,9.4,0,14.1c0,4,0,7.9,0,11.9
	c-0.2,0.3-0.1,0.5-0.1,0.8c0,1.6,0,3.2,0,4.9c0,2-0.1,4,0,6c0,0.7,0,1.4,0,2.2c0.2,0.4,0,0.7,0.1,1.1c0.2,1.8,0.4,3.5,0.8,5.2
	c0.6,2.6,1.4,5.2,2.8,7.5c1.3,2.2,2.8,4.2,4.7,5.9c2.4,2.1,5.2,3.6,8.2,4.6c2,0.7,4.1,1.1,6.2,1.3c0.3,0.1,0.6,0,0.9,0.1
	c0.3,0,0.5,0,0.8,0c0.5,0.1,1-0.1,1.4,0.1c1.5,0,3,0,4.5,0c0.5-0.2,1,0,1.4-0.1c0.3,0,0.5,0,0.8,0c0.3-0.1,0.6,0,0.9-0.1
	c3.5-0.6,7-1.4,10.2-3.2c4.2-2.4,7.3-6,9.2-10.4c1.4-3.3,2.1-6.7,2.6-10.2c0.1-0.3,0-0.6,0.1-0.9c0-0.4,0-0.8,0-1.1
	c0.1-0.5-0.1-1.1,0.1-1.6c0-0.1,0-0.2,0-0.3c0-12.3,0-24.6,0.1-36.8c0-0.9-0.3-1-1.1-1C-1.8,290.9-4,290.8-6.3,290.8 M26.5,272.8
	c-0.5-0.3-1.1-0.1-1.7-0.1c-2.9,0-5.7-0.1-8.6,0c-0.4,0.1-0.8,0.1-1.2,0.2c-2.2,0.5-3.8,1.7-4.8,3.8c-0.7,1.5-0.9,3.1-0.9,4.7
	c0,24.6,0,49.2,0,73.9c0,0.7,0.2,0.8,0.9,0.8c5,0,10.1,0,15.1,0c1.1,0,1.1,0,1.1-1.2c0-26.1,0-52.2,0-78.3
	C26.5,275.3,26.5,274.1,26.5,272.8 M286.6,316c-0.1,0.3,0,0.6-0.1,0.9c0,0.3,0,0.5,0,0.8c-0.1,0.4,0,0.9-0.1,1.3c0,0.5,0,1.1,0,1.6
	c-0.1,2.1-0.1,4.1,0,6.2c0,9.7,0,19.4,0,29.1c0.2,0.2,0.4,0.1,0.6,0.1c5.3,0,10.6,0,15.9,0c0.2,0,0.4,0.1,0.5-0.1c0-0.2,0-0.4,0-0.6
	c0-12,0-23.9,0-35.9c0-0.2,0-0.5,0-0.7c0.1-0.4,0-0.7,0.1-1.1c0.2-3.2,2-5.5,4.5-7.2c3-2,6.4-2.7,9.8-2.9c0.5-0.2,1,0,1.4-0.1
	c0.7,0,1.5-0.1,2.2,0c0.8,0.1,0.8-0.2,0.8-0.8c0-5.2,0-10.4,0-15.6c-1.3-0.2-2.5-0.1-3.8-0.1c-0.4,0-0.9,0-1.3,0
	c-0.3,0.1-0.6,0-0.9,0.1c-0.3,0-0.6,0-0.8,0c-0.3,0.2-0.6,0-0.9,0.1c-0.3,0.1-0.7,0.1-1,0.2c-6.8,1.1-13.1,3.1-18.5,7.7
	c-2.9,2.4-5,5.4-6.5,8.8C287.5,310.5,286.8,313.2,286.6,316 M337.3,290.8c-0.3,0.1-0.6,0-0.9,0.1c-3.8,0.6-5.9,2.5-6.5,6.5
	c-0.1,0.3,0,0.6-0.1,0.9c0,0.1,0,0.2,0,0.3c0,18.8,0,37.6,0,56.5c0,0.7,0.2,0.8,0.9,0.8c4.2,0,8.3,0,12.5,0c1.2,0,2.5,0,3.7,0.1
	c0.4-0.2,0.2-0.6,0.2-0.9c0-21.2,0-42.4,0-63.6c0-0.3,0.1-0.6-0.1-0.8C343.6,290.8,340.4,290.8,337.3,290.8 M329.8,279.8
	c-0.1,1.8,0,3.6,0,5.5c0,0.1,0.1,0.1,0.1,0.2c2.6,0,5.1,0,7.7,0c3.1,0,6.1,0,9.1,0c0.1-0.1,0.1-0.1,0.1-0.2c0-4.1,0-8.2,0-12.3
	c0-0.3-0.1-0.5-0.5-0.4c-2.9,0-5.8-0.1-8.7,0.1C333.3,272.8,330.1,276,329.8,279.8 M267.2,272.8c0-0.5-0.4-0.2-0.6-0.2
	c-1.3,0-2.7,0-4,0c-2.3,0-4.6-0.1-6.8,0c-0.2,0-0.3,0-0.5,0c-1.5,0-2.7,0.6-3.5,1.9c-1.4,2.2-2.9,4.3-4.3,6.5
	c-0.9,1.4-1.9,2.8-2.8,4.3c2.6,0,5.1,0,7.7,0c0.3,0,0.6,0,0.9,0c1.4-0.2,2.4-0.9,3.4-1.9C260.1,279.8,263.6,276.3,267.2,272.8
	 M457.5,335.6c0.5-3.9,0-7.9,0.2-12.1c-2.2,1.7-4.6,2.2-7,2.7c-3.5,0.8-7.1,1.2-10.7,2.1c-2.1,0.5-4.1,1.5-5.1,3.5
	c-2.4,4.6-0.5,9.7,4.2,11.4c4.2,1.5,8.4,1.3,12.6-0.2C455.1,341.8,457,339.2,457.5,335.6 M473.6,348.3c0,0.3-0.1,0.6,0.1,0.9v7
	c-0.3,0.3-0.6,0.2-1,0.2c-3,0-6.1,0-9.1,0c-1.6,0-2.8-0.8-3.7-2c-0.3-0.4-0.6-0.6-1.1-0.3c-4.2,2.2-8.7,2.8-13.4,2.7
	c-0.9,0-1.9,0.1-2.8-0.1c-0.6,0-1.2,0-1.8,0c-0.4-0.2-0.7,0-1.1-0.1l-0.8,0c-0.3-0.2-0.6,0-0.9-0.1c-2.1-0.2-4.2-0.7-6.3-1.4
	c-3-1-5.8-2.5-8.1-4.7c-2.5-2.4-4.1-5.4-5-8.8c-0.2-0.8-0.3-1.7-0.4-2.5c-0.1-0.3,0-0.6-0.1-0.9c0-0.5,0-1,0-1.5
	c-0.1-0.3-0.1-0.7,0-1c0-0.4,0-0.9,0-1.3c0.2-0.3,0-0.6,0.1-0.9c0.6-4.5,2.9-7.9,6.3-10.8c3.9-3.4,8.6-4.8,13.5-5.6
	c4.4-0.8,8.9-1.1,13.2-2.3c2.1-0.6,4.1-1.5,5.4-3.4c0.3-0.4,0.2-1,0.5-1.4c0.1-0.4,0.1-0.8,0-1.2c-0.2-2-1.5-3.1-3.1-4.1
	c-1.7-1-3.6-1.4-5.6-1.6c-1.2-0.1-2.4-0.1-3.6,0c-2.7,0.1-5.2,0.9-7.2,2.9c-0.6,0.6-1,1.3-1.3,2.1c-0.1,0.4-0.3,0.6-0.8,0.6
	c-5,0-9.9,0-14.9,0c-0.6,0-0.7-0.2-0.6-0.8c0.3-1.7,0.9-3.4,1.5-5c0.6-1.5,1.5-2.9,2.6-4.1c4.4-5.1,10.1-7.8,16.6-8.9
	c0.5-0.1,1-0.2,1.5-0.2c0.3-0.1,0.7,0,1.1-0.1c0.4,0,0.8,0,1.1,0c1.6-0.1,3.2-0.1,4.8,0c0.4,0,0.8,0,1.2,0c0.3,0.2,0.7,0,1.1,0.1
	c4,0.5,7.9,1.5,11.6,3.4c2.6,1.4,5.1,2.9,6.9,5.4c1.8,2.6,2.9,5.4,3.4,8.5c0.1,0.4,0.1,0.8,0.2,1.3c0.1,0.3,0,0.7,0.1,1.1
	c0,0.3,0,0.6,0,1c0,4.7,0,9.4,0,14.1c0,4,0,8,0,12C473.5,340.2,473.5,344.3,473.6,348.3 M262.8,316.4c0.8,0,0.9-0.2,0.8-0.9
	c-0.5-4.6-2.6-8.2-6.6-10.7c-8.1-5-20.5-1.1-22.6,10.4c-0.2,1.1-0.2,1.1,0.9,1.1h13.5v0.1C253.5,316.4,258.2,316.4,262.8,316.4
	 M279.9,325.8c-0.2,0.5,0.1,1.1-0.2,1.6c-9.6,0-19.1,0-28.7,0c-5.4,0-10.8,0-16.2,0c-0.6,0-0.8,0.1-0.7,0.8
	c0.7,6.9,5.2,13.2,12.5,14.6c0.5,0.1,1,0.2,1.5,0.2c0.4,0.2,0.7,0,1.1,0.1c0.7,0,1.4,0,2.1,0c0.5-0.1,1,0,1.4-0.1
	c2.6-0.1,4.8-1,6.9-2.6c1.1-0.9,2-2,3.1-2.9c1-0.8,2.1-1.3,3.3-1.5c2-0.1,4.1,0,6.1,0c2,0,4,0,6,0c0.2,0,0.6-0.2,0.7,0.2
	c-0.7,2.2-1.5,4.3-2.6,6.3c-1.8,3.2-4.1,6-7,8.4c-4,3.2-8.6,4.9-13.6,5.6c-0.3,0-0.7,0.1-1,0.2c-0.3,0.1-0.6,0-0.9,0.1
	c-0.4,0-0.8-0.1-1.1,0.2h-0.5c-0.3-0.2-0.6,0-0.9-0.1c-0.4,0-0.8-0.1-1.2,0.1h-1.9c-0.5-0.1-0.9-0.1-1.4,0h-1.5
	c-0.4-0.5-1.1-0.2-1.6-0.3c-4.8-0.7-9.1-2.7-12.8-5.8c-2.5-2-4.6-4.3-6.4-6.9c-1.6-2.4-2.7-5.1-3.5-7.9c-0.5-1.7-0.8-3.4-1.2-5.1
	c-0.2-0.9-0.2-1.8-0.3-2.7c-0.1-0.3,0-0.7-0.1-1.1c0-0.4,0-0.9,0-1.3c-0.1-1.9-0.1-3.9,0-5.8c0-0.5,0-1,0-1.5c0.2-0.4,0-0.7,0.1-1.1
	c0.2-2.4,0.6-4.9,1.3-7.2c0.7-2.5,1.7-4.8,3-7c1.1-1.9,2.5-3.6,4-5.1c4.6-4.6,10.2-7.6,16.7-8.4c0.3,0,0.6-0.1,0.9-0.2
	c0.3-0.1,0.6,0,0.9-0.1c0.3,0,0.6,0,1,0c1.3-0.1,2.6-0.1,3.9,0c4.1,0.3,8,1.1,11.7,2.9c4.5,2.1,8,5.3,10.8,9.3c3,4.2,4.7,9,5.4,14.1
	c0,0.3,0.1,0.6,0.2,0.9c0.1,0.3,0,0.6,0.1,0.9c0,0.2,0,0.4,0,0.6c0.1,0.4,0,0.7,0.1,1.1c0,0.4,0,0.9,0,1.3c0.2,0.6-0.1,1.2,0.1,1.8
	C279.9,323.6,279.9,324.7,279.9,325.8 M82.3,324.1c0.5,0,0.6-0.1,0.4-0.6c-0.6-1.5-1.1-3.1-1.6-4.6c-3-8.4-6-16.9-9.1-25.5
	c-0.5,1.4-0.9,2.5-1.3,3.7c-3.1,8.7-6.2,17.5-9.4,26.2c-0.1,0.3-0.5,0.8,0.3,0.7C68.5,324,75.4,324.1,82.3,324.1 M111.5,355.2
	c0.3,0.9,0.3,0.9-0.6,0.9c-5.3,0-10.6,0-15.9,0c-0.8,0-1-0.3-1.3-0.9c-0.4-1.2-0.8-2.4-1.3-3.6c-0.7-1.9-1.3-3.8-2-5.7
	c-0.8-2.2-1.5-4.4-2.3-6.5c-0.1-0.4-0.3-0.5-0.8-0.5c-1.7,0-3.5,0-5.2,0c-0.3,0.1-0.6,0-0.9,0c-8.2,0-16.4,0-24.5,0
	c-0.3,0-0.7-0.1-1,0.1c-1,2.7-2,5.5-3,8.2c-1,2.8-2,5.6-3,8.3c-0.1,0.4-0.3,0.6-0.8,0.6c-5.6,0-11.2,0-16.8,0c0,0-0.1,0-0.2,0
	c0.9-2.5,1.8-5.1,2.7-7.6c1.2-3.4,2.4-6.7,3.6-10.1c1.2-3.4,2.4-6.8,3.6-10.2c1.2-3.4,2.4-6.7,3.6-10.1c1.2-3.3,2.4-6.6,3.6-9.9
	c1.6-4.4,3.1-8.8,4.7-13.1c1.5-4.2,3-8.4,4.5-12.6c0.6-1.8,1.2-3.6,2-5.2c1.2-2.5,3.3-3.7,6-4.1c0.6-0.1,1.1-0.1,1.7-0.2
	c1.2-0.1,2.4,0,3.6,0c3.2,0,6.4,0,9.6,0c0.3,0,0.6-0.1,0.9,0.1c1.4,3.8,2.7,7.6,4.1,11.4c4,11.3,8,22.6,12.1,33.9
	c2.8,7.7,5.6,15.4,8.3,23.2C108.2,345.9,109.9,350.5,111.5,355.2"/>
</svg>
