<svg width="48" height="48" viewBox="0 0 48 48" fill="none" xmlns="http://www.w3.org/2000/svg">
<g clip-path="url(#clip0_51_138)">
<path d="M23.68 23.5385C23.8773 23.6505 24.1227 23.6505 24.32 23.5385L45.0587 12.1172C44.2213 8.98917 41.3893 6.6665 38 6.6665H10C6.62134 6.6665 3.79734 8.97317 2.952 12.0878L23.68 23.5385Z" fill="#212121"/>
<path d="M26.2533 27.0396C25.5493 27.429 24.776 27.6236 24.0027 27.6236C23.2293 27.6236 22.4507 27.429 21.7467 27.037L2.66665 16.501V33.9996C2.66665 38.045 5.95465 41.333 9.99999 41.333H38C42.0453 41.333 45.3333 38.045 45.3333 33.9996V16.533L26.2533 27.0396Z" fill="#212121"/>
</g>
<defs>
<clipPath id="clip0_51_138">
<rect width="48" height="48" fill="white"/>
</clipPath>
</defs>
</svg>
