<svg width="48" height="48" viewBox="0 0 48 48" fill="none" xmlns="http://www.w3.org/2000/svg">
<path d="M24 3C12.402 3 3 12.402 3 24C3 33.849 9.78 42.1125 18.927 44.382V30.417H14.5965V24H18.927V21.2355C18.927 14.088 22.161 10.7745 29.1795 10.7745C30.51 10.7745 32.805 11.0355 33.744 11.2965V17.1135C33.249 17.061 32.388 17.0355 31.3185 17.0355C27.8745 17.0355 26.544 18.3405 26.544 21.7305V24H33.4035L32.2245 30.417H26.544V44.8455C36.942 43.59 45 34.7355 45 24C45 12.402 35.598 3 24 3Z" fill="#212121"/>
</svg>
