<svg width="48" height="48" viewBox="0 0 48 48" fill="none" xmlns="http://www.w3.org/2000/svg">
<path d="M15.303 3.14676C13.068 3.25176 11.5425 3.60876 10.209 4.13226C8.829 4.67076 7.659 5.39226 6.4935 6.56076C5.3295 7.72926 4.6125 8.90076 4.0785 10.2823C3.561 11.6188 3.2115 13.1458 3.1125 15.3823C3.0135 17.6173 2.9925 18.3373 3.003 24.0388C3.0135 29.7403 3.039 30.4558 3.147 32.6968C3.2535 34.9303 3.609 36.4558 4.1325 37.7908C4.671 39.1708 5.3925 40.3408 6.561 41.5063C7.7295 42.6703 8.8995 43.3858 10.2855 43.9213C11.6205 44.4373 13.149 44.7898 15.384 44.8873C17.619 44.9848 18.339 45.0073 24.0405 44.9968C29.742 44.9863 30.459 44.9608 32.7 44.8543C34.941 44.7478 36.4575 44.3908 37.7925 43.8688C39.1725 43.3288 40.344 42.6088 41.508 41.4388C42.672 40.2688 43.389 39.0973 43.9215 37.7143C44.439 36.3793 44.79 34.8508 44.8875 32.6173C44.985 30.3763 45.009 29.6608 44.997 23.9578C44.985 18.2548 44.961 17.5408 44.8545 15.3013C44.748 13.0618 44.3925 11.5408 43.869 10.2058C43.329 8.82576 42.609 7.65576 41.4405 6.49026C40.272 5.32476 39.099 4.60926 37.716 4.07676C36.3795 3.55926 34.8525 3.20676 32.6175 3.11076C30.3825 3.01476 29.6625 2.98926 23.9595 2.99976C18.2565 3.01026 17.5425 3.03576 15.303 3.14376M15.549 41.1073C13.5015 41.0188 12.39 40.6783 11.649 40.3933C10.668 40.0153 9.969 39.5578 9.231 38.8273C8.493 38.0968 8.0385 37.3948 7.656 36.4153C7.368 35.6743 7.0215 34.5643 6.9255 32.5168C6.822 30.3043 6.7995 29.6398 6.7875 24.0328C6.7755 18.4258 6.7965 17.7628 6.894 15.5488C6.981 13.5028 7.323 12.3898 7.608 11.6488C7.986 10.6663 8.442 9.96876 9.174 9.23076C9.906 8.49276 10.6065 8.03826 11.586 7.65576C12.3255 7.36626 13.437 7.02276 15.483 6.92526C17.697 6.82026 18.3615 6.79926 23.967 6.78726C29.5725 6.77526 30.2385 6.79626 32.454 6.89376C34.5 6.98226 35.613 7.32126 36.3525 7.60776C37.3335 7.98576 38.0325 8.44026 38.7705 9.17376C39.5085 9.90726 39.963 10.6048 40.347 11.5873C40.6365 12.3253 40.98 13.4353 41.076 15.4828C41.181 17.6968 41.205 18.3613 41.2155 23.9668C41.226 29.5723 41.2065 30.2383 41.109 32.4508C41.019 34.4983 40.68 35.6098 40.395 36.3523C40.017 37.3333 39.561 38.0323 38.8275 38.7703C38.094 39.5083 37.395 39.9628 36.4155 40.3453C35.676 40.6333 34.5645 40.9783 32.52 41.0758C30.306 41.1793 29.6415 41.2018 24.0345 41.2138C18.4275 41.2258 17.763 41.2033 15.549 41.1073ZM32.6685 12.7753C32.6715 14.1673 33.801 15.2938 35.193 15.2908C36.585 15.2878 37.7115 14.1583 37.7085 12.7663C37.7055 11.3743 36.576 10.2478 35.184 10.2508C33.792 10.2538 32.667 11.3833 32.6685 12.7753ZM13.218 24.0193C13.23 29.9743 18.066 34.7923 24.021 34.7803C29.976 34.7683 34.7955 29.9323 34.785 23.9773C34.773 18.0223 29.9355 13.2028 23.9805 13.2148C18.0255 13.2268 13.206 18.0643 13.218 24.0193ZM17.0025 24.0118C16.995 20.1463 20.1225 17.0053 23.9895 16.9978C27.855 16.9903 30.996 20.1178 31.0035 23.9848C31.011 27.8503 27.8835 30.9913 24.0165 30.9988C20.151 31.0063 17.01 27.8803 17.0025 24.0148" fill="#212121"/>
</svg>
