<svg width="48" height="48" viewBox="0 0 48 48" fill="none" xmlns="http://www.w3.org/2000/svg">
<path d="M46 21C45.7348 21 45.4804 20.8946 45.2929 20.7071C45.1054 20.5196 45 20.2652 45 20C44.995 15.4929 43.2023 11.1718 40.0153 7.98474C36.8282 4.79771 32.5071 3.00503 28 3C27.7348 3 27.4804 2.89464 27.2929 2.70711C27.1054 2.51957 27 2.26522 27 2C27 1.73478 27.1054 1.48043 27.2929 1.29289C27.4804 1.10536 27.7348 1 28 1C33.0374 1.00556 37.8669 3.00912 41.4289 6.57111C44.9909 10.1331 46.9944 14.9626 47 20C47 20.2652 46.8946 20.5196 46.7071 20.7071C46.5196 20.8946 46.2652 21 46 21Z" fill="#212121"/>
<path d="M38 21C37.7348 21 37.4804 20.8946 37.2929 20.7071C37.1054 20.5196 37 20.2652 37 20C36.9974 17.6139 36.0483 15.3262 34.361 13.639C32.6738 11.9517 30.3861 11.0026 28 11C27.7348 11 27.4804 10.8946 27.2929 10.7071C27.1054 10.5196 27 10.2652 27 10C27 9.73478 27.1054 9.48043 27.2929 9.29289C27.4804 9.10536 27.7348 9 28 9C30.9163 9.00344 33.7122 10.1635 35.7744 12.2256C37.8365 14.2878 38.9966 17.0837 39 20C39 20.2652 38.8946 20.5196 38.7071 20.7071C38.5196 20.8946 38.2652 21 38 21Z" fill="#212121"/>
<path d="M31.376 29.1748L27.79 33.6578C22.2361 30.3937 17.6075 25.7655 14.343 20.2118L18.826 16.6258C19.3511 16.2051 19.7223 15.6224 19.8814 14.9687C20.0406 14.3149 19.9789 13.6268 19.706 13.0118L15.619 3.81179C15.3262 3.15173 14.8084 2.61719 14.1579 2.3036C13.5075 1.99001 12.7668 1.91778 12.068 2.09979L4.29 4.11479C3.56428 4.30472 2.93336 4.75412 2.51669 5.37793C2.10002 6.00174 1.92651 6.75666 2.029 7.49979C3.39477 17.2198 7.88747 26.2311 14.8281 33.1717C21.7687 40.1123 30.78 44.605 40.5 45.9708C41.2428 46.0737 41.9976 45.9004 42.6211 45.4839C43.2447 45.0673 43.6937 44.4364 43.883 43.7108L45.9 35.9318C46.0816 35.233 46.0092 34.4925 45.6956 33.8421C45.3821 33.1918 44.8478 32.6739 44.188 32.3808L34.99 28.2998C34.3755 28.0261 33.6878 27.9636 33.034 28.1218C32.3802 28.2801 31.7972 28.6504 31.376 29.1748Z" fill="#212121"/>
</svg>
